<svg width="565" height="995" viewBox="0 0 565 995" fill="none" xmlns="http://www.w3.org/2000/svg">
<path d="M329.307 176.989C295.351 222.057 221.861 228.578 174.04 192.548C126.219 156.517 25.1835 168.991 59.1399 123.923C93.0963 78.8544 177.344 31.1091 225.172 67.1448C273 103.181 363.263 131.921 329.307 176.989Z" fill="#D4B05C"/>
<path d="M156.437 760C223.029 760 265.69 899.707 265.69 944.263C265.69 988.819 168.206 994.269 101.613 994.269C35.02 994.269 0 930.707 0 886.152C0 841.597 89.847 760 156.437 760Z" fill="#D4F5E9"/>
<path d="M488.834 393.518C506.898 398.698 551.421 438.063 543.973 486.866C538.469 522.924 484.616 564.194 474.25 600.344C449.859 685.404 431.924 710.556 400.508 701.548C381.219 696.017 349.053 688.215 341.825 643.038C337.301 614.768 349.751 555.845 359.165 523.014C368.945 488.905 408.33 475.709 428.179 453.662C457.617 420.964 470.016 388.123 488.834 393.518Z" fill="#FDDDE3"/>
</svg>
