<svg width="577" height="871" viewBox="0 0 577 871" fill="none" xmlns="http://www.w3.org/2000/svg">
<path d="M44.8091 34.2846C66.5581 34.2846 105.164 0.335646 128.32 0.00964628C172.641 -0.613354 214.513 29.0676 214.513 52.2156C214.513 72.7256 220.65 130.76 188.507 146.283C165.663 157.315 109.347 172.137 82.8241 172.137C19.2301 172.137 3.95312 156.393 3.95312 121.213C3.95312 86.0326 -18.7859 34.2846 44.8091 34.2846Z" fill="#5FA2A3"/>
<path d="M330.715 856.508C329.632 841.069 331.622 822.262 336.471 802.121C341.222 782.383 348.456 762.373 357.392 744.253C361.953 735.003 366.884 726.407 372.048 718.705C377.406 710.713 382.994 703.716 388.657 697.909C394.568 691.848 400.574 687.071 406.509 683.712C412.697 680.21 418.862 678.222 424.835 677.803C427.663 677.605 430.678 677.069 433.795 676.212C436.723 675.407 439.835 674.292 443.045 672.898C448.883 670.363 455.135 666.899 462.157 662.307C475.031 653.889 488.016 643.296 500.573 633.053C512.137 623.619 523.059 614.709 532.393 608.795C542.201 602.58 549.065 600.465 553.377 602.33C555.273 603.15 556.756 604.765 557.911 607.267C559.228 610.121 560.074 614.114 560.426 619.136C560.983 627.075 561.058 635.245 560.65 643.417C560.243 651.557 559.356 659.719 558.012 667.676C556.658 675.695 554.838 683.526 552.6 690.953C550.322 698.517 547.601 705.695 544.513 712.288C541.342 719.058 537.759 725.261 533.866 730.724C529.845 736.365 525.448 741.277 520.796 745.324C510.903 753.933 499.824 758.723 487.869 759.562C484.863 759.772 481.594 760.479 478.152 761.663C474.937 762.768 471.464 764.326 467.829 766.293C461.229 769.865 453.988 774.802 445.694 781.384C430.468 793.468 414.544 808.851 399.145 823.727C385.221 837.178 372.07 849.882 360.918 858.671C355.033 863.308 350.197 866.473 346.134 868.346C342.026 870.24 338.78 870.753 336.485 869.873C334.948 869.283 333.742 868.044 332.8 866.085C331.702 863.805 331.001 860.583 330.715 856.508Z" fill="#D4F5E9"/>
</svg>
