<svg xmlns="http://www.w3.org/2000/svg" width="52.61" height="47.282" viewBox="0 0 52.61 47.282">
  <g id="Group_22" data-name="Group 22" transform="translate(-28.984 -31.254)">
    <path id="Path_226" data-name="Path 226" d="M50.279,68.514v8.142A1.877,1.877,0,0,1,48.4,78.535H34.621a1.877,1.877,0,0,1-1.879-1.879V54.736H30.863a1.88,1.88,0,0,1-1.879-1.879v-4.59a1.882,1.882,0,0,1,.889-1.6L54.321,31.536a1.878,1.878,0,0,1,1.952-.018c8.468,5.053,15.93,10.1,24.4,15.157a1.878,1.878,0,0,1,.918,1.615v4.567a1.88,1.88,0,0,1-1.879,1.879H77.836V76.657a1.877,1.877,0,0,1-1.879,1.879H62.178A1.877,1.877,0,0,1,60.3,76.657V68.482a5.011,5.011,0,0,0-10.021.033Z" transform="translate(0 0)" fill-rule="evenodd"/>
  </g>
</svg>
