<svg width="739" height="562" viewBox="0 0 739 562" fill="none" xmlns="http://www.w3.org/2000/svg">
<path fill-rule="evenodd" clip-rule="evenodd" d="M495.888 101.672C465.862 58.8729 413.775 33.6562 358.276 40.5499C282.82 49.9223 228.001 115.302 230.328 189.823C210.3 183.658 188.674 181.531 166.53 184.281C82.6751 194.697 23.1406 271.119 33.5564 354.974C43.9722 438.829 120.394 498.363 204.249 487.948C232.606 484.425 258.181 473.355 279.211 457.002C304.433 490.297 346.228 509.612 390.661 504.093C424.715 499.863 453.697 481.869 472.721 456.382C503.672 485.32 546.763 500.826 592.1 495.195C673.215 485.119 730.804 411.195 720.728 330.08C714.661 281.231 685.436 240.914 645.431 218.769C666.755 198.502 678.518 168.731 674.613 137.295C668.078 84.6796 620.127 47.3247 567.512 53.86C536.246 57.7436 510.369 76.2515 495.888 101.672Z" fill="#49A4FF"/>
</svg>
