<svg width="509" height="584" viewBox="0 0 509 584" fill="none" xmlns="http://www.w3.org/2000/svg">
<path fill-rule="evenodd" clip-rule="evenodd" d="M269.709 583.705C268.967 582.989 268.316 582.185 267.769 581.311C263.459 574.331 257.896 568.207 251.361 563.248C245.871 559.061 239.964 555.452 233.734 552.477C233.369 552.265 232.951 552.161 232.529 552.178C232.107 552.195 231.699 552.332 231.352 552.572C229.728 553.539 228.073 554.461 226.411 555.358C219.62 559.098 212.55 562.307 205.265 564.958C199.064 567.201 192.68 568.9 186.185 570.038C178.825 571.211 171.36 571.575 163.921 571.125C162.462 571.049 161.002 570.847 159.549 570.708C159.429 570.695 159.309 570.67 159.183 570.651C158.614 570.624 158.067 570.422 157.616 570.074C157.165 569.726 156.832 569.248 156.661 568.705C156.49 568.162 156.49 567.579 156.661 567.035C156.832 566.492 157.165 566.014 157.616 565.666C158.355 565.028 159.107 564.402 159.84 563.758C163.14 560.858 166.531 558.047 169.721 555.033C181.54 543.901 190.873 530.398 197.109 515.407C200.679 506.844 203.528 497.997 205.626 488.96C207.332 481.77 208.726 474.523 209.72 467.207C210.579 460.921 211.42 454.628 212.14 448.323C212.778 442.744 213.22 437.147 213.764 431.561C214.32 425.793 214.882 420.026 215.451 414.261C216.058 408.126 216.721 401.998 217.277 395.861C218.093 387.413 218.356 378.92 218.067 370.437C217.871 362.737 216.652 355.097 214.441 347.718C212.834 342.387 210.332 337.368 207.041 332.877C203.575 328.276 199.149 324.484 194.07 321.764C191.772 320.478 189.235 319.676 186.615 319.407C185.215 319.274 183.835 319.015 182.451 318.775C182.007 318.68 181.547 318.689 181.108 318.802C180.668 318.915 180.261 319.128 179.918 319.426C177.663 321.202 175.235 322.747 172.671 324.038C169.794 325.524 166.723 326.598 163.548 327.229C157.757 328.398 151.742 327.628 146.433 325.037C142.508 323.177 138.921 320.676 135.819 317.637C135.029 316.879 134.258 316.095 133.412 315.255C132.962 315.441 132.521 315.649 132.092 315.88C127.98 318.402 123.68 320.603 119.229 322.463C114.981 324.173 110.547 325.379 106.018 326.058C102.995 326.514 99.9286 326.615 96.882 326.358C91.014 325.972 85.2946 324.346 80.101 321.588C77.35 320.126 74.7347 318.422 72.286 316.496C68.2033 313.36 64.8404 309.385 62.424 304.839C60.7749 301.567 59.6608 298.052 59.124 294.427C58.5104 290.563 58.4615 286.629 58.979 282.751C59.0107 282.449 59.0171 282.144 58.998 281.841C58.9565 281.688 58.895 281.542 58.815 281.405C58.4312 281.331 58.0431 281.283 57.653 281.26C53.8681 281.255 50.087 281.019 46.331 280.552C39.5774 279.87 32.9678 278.159 26.732 275.477C22.7652 273.717 19.0648 271.41 15.739 268.622C11.6272 265.042 8.29198 260.658 5.939 255.74C4.20244 252.304 2.93415 248.65 2.168 244.877C1.39472 241.547 0.931409 238.152 0.783999 234.737C0.770999 233.581 0.677 232.425 0.613 231.268C0.630539 231.083 0.576895 230.898 0.462997 230.752C0.3491 230.605 0.183522 230.507 0 230.478V227.546C0.461 227.489 0.594 227.154 0.613 226.769C0.645 225.916 0.619 225.057 0.683 224.21C1.0627 218.12 1.84575 212.063 3.027 206.077C4.59096 197.794 7.38486 189.791 11.316 182.334C15.7452 173.913 22.3287 166.818 30.395 161.772C32.3105 160.574 34.3005 159.5 36.353 158.556C42.5579 155.817 49.139 154.026 55.876 153.243C57.876 152.984 59.888 152.87 61.891 152.693C65.3032 152.474 68.7255 152.463 72.139 152.661C74.331 152.731 76.511 153.021 78.703 153.185C79.0891 153.167 79.4724 153.109 79.847 153.014C79.588 152.243 79.411 151.605 79.165 150.999C77.7788 147.545 76.6347 143.998 75.741 140.385C74.3827 135.252 73.6005 129.983 73.409 124.677C73.2983 120.59 73.5072 116.5 74.034 112.445C74.7804 106.875 76.1769 101.411 78.195 96.166C81.142 88.4604 85.1795 81.2176 90.184 74.659C93.6195 69.9726 97.8337 65.9103 102.643 62.649C106.202 60.2753 110.083 58.4232 114.167 57.149C118.617 55.8197 123.248 55.1991 127.89 55.31C129.476 55.335 131.068 55.361 132.641 55.531C135.551 55.8651 138.435 56.3997 141.271 57.131C141.671 57.1859 142.077 57.1903 142.478 57.144C142.569 56.9616 142.649 56.7739 142.718 56.582C142.933 55.882 143.141 55.182 143.331 54.482C145.408 46.4963 148.702 38.8776 153.095 31.893C154.434 29.7798 155.912 27.7577 157.518 25.84C161.08 21.5677 165.179 17.773 169.712 14.55C173.998 11.515 178.624 8.98993 183.495 7.026C192.418 3.50491 201.835 1.39658 211.407 0.777C213.17 0.644 214.939 0.518 216.695 0.354C217.037 0.276628 217.368 0.157746 217.681 0H227.209C227.449 0.36 227.828 0.341 228.188 0.366C229.894 0.499 231.593 0.657 233.299 0.766C241.103 1.29267 248.791 2.93954 256.126 5.656C265.387 9.05388 273.811 14.4015 280.826 21.337C286.798 27.3063 291.762 34.2045 295.526 41.763C299.02 48.6174 301.785 55.8191 303.777 63.25C303.916 63.774 304.124 64.286 304.301 64.798C304.32 64.842 304.396 64.867 304.484 64.931C305.046 64.95 305.242 64.444 305.533 64.091C307.523 61.696 309.419 59.22 311.497 56.901C315.562 52.339 320.074 48.1969 324.967 44.537C330.017 40.8812 335.527 37.9091 341.356 35.698C344.893 34.3604 348.559 33.3922 352.295 32.809C356.933 32.0236 361.645 31.7693 366.34 32.051C370.478 32.334 374.591 32.9124 378.647 33.782C387.801 35.6732 396.67 38.7463 405.031 42.924C414.11 47.4704 422.42 53.4119 429.658 60.532C435.526 66.2439 440.708 72.6203 445.099 79.532C449.213 85.7486 452.606 92.4127 455.214 99.396C456.734 103.521 457.826 107.791 458.474 112.139C458.966 115.583 459.095 119.068 458.859 122.539C458.52 127.476 457.419 132.331 455.593 136.931C455.482 137.214 455.395 137.505 455.334 137.803C455.319 137.949 455.327 138.096 455.359 138.239C455.875 138.631 456.489 138.872 457.134 138.934C460.783 139.937 464.375 141.137 467.895 142.527C474.284 144.993 480.29 148.356 485.731 152.516C493.877 158.751 500.13 167.126 503.795 176.707C505.629 181.496 506.937 186.47 507.695 191.542C507.95 193.171 508.091 194.816 508.118 196.464C508.169 202.081 508.156 207.697 508.118 213.314C508.077 214.594 507.956 215.871 507.758 217.136C507.098 222.524 506.13 227.869 504.858 233.146C503.891 237.182 502.605 241.135 501.011 244.967C499.046 249.774 496.541 254.342 493.543 258.582C489.861 263.626 485.276 267.944 480.022 271.319C475.593 274.146 470.78 276.32 465.731 277.776C463.336 278.476 460.872 278.957 458.446 279.545C458.098 279.633 457.764 279.773 457.435 279.88C457.113 281.48 456.816 283.039 456.487 284.587C456.061 286.556 455.4 288.467 454.516 290.277C453.097 293.231 450.952 295.778 448.281 297.678C445.611 299.579 442.502 300.771 439.246 301.144C438.946 301.176 438.658 301.232 438.406 301.264C438.032 301.857 437.863 302.556 437.926 303.254C437.846 306 437.328 308.715 436.391 311.297C434.957 315.277 432.54 318.831 429.365 321.627C426.158 324.465 422.511 326.762 418.565 328.427C412.184 331.209 405.501 333.24 398.651 334.48C395.89 334.985 393.116 335.44 390.337 335.78C388.633 335.923 386.923 335.978 385.213 335.944C383.444 335.963 381.669 335.976 379.9 335.906C373.486 335.645 367.158 334.334 361.167 332.027C356.598 330.293 352.238 328.053 348.167 325.349C343.095 321.935 338.453 317.921 334.343 313.395C333.626 312.531 332.842 311.724 331.999 310.982C330.772 311.526 329.614 312.213 328.549 313.029C323.931 316.246 319.898 320.232 316.627 324.812C309.436 334.952 304.416 346.468 301.881 358.638C300.585 364.666 299.701 370.774 299.234 376.922C298.729 383.008 298.545 389.117 298.684 395.222C298.836 400.712 299.032 406.203 299.584 411.674C300.02 415.989 300.374 420.304 300.835 424.613C301.201 427.949 301.682 431.272 302.118 434.602C302.649 438.715 303.161 442.834 303.735 446.941C304.329 451.241 304.91 455.527 305.635 459.798C306.635 465.75 307.676 471.707 308.863 477.621C311.031 488.891 314.095 499.969 318.024 510.752C320.958 518.85 324.763 526.605 329.371 533.882C334.589 541.93 340.348 549.614 346.607 556.882C350.265 561.14 354.119 565.222 357.891 569.382C358.316 569.82 358.713 570.284 359.079 570.772C359.405 571.293 359.551 571.906 359.494 572.518C359.437 573.13 359.18 573.706 358.763 574.158C358.513 574.427 358.205 574.636 357.863 574.769C357.52 574.903 357.152 574.957 356.786 574.929C354.897 574.872 353.002 574.878 351.119 574.765C347.891 574.565 344.662 574.386 341.446 574.038C337.807 573.638 334.18 573.128 330.56 572.56C325.56 571.77 320.603 570.74 315.688 569.527C310.943 568.352 306.28 566.937 301.643 565.395C295.452 563.328 289.359 560.984 283.365 558.363C281.804 557.681 280.265 556.929 278.709 556.234C278.298 556.081 277.878 555.953 277.452 555.849C277.452 556.399 277.427 556.809 277.458 557.233C277.603 559.356 277.806 561.485 277.907 563.614C277.98 565.873 277.776 568.133 277.3 570.343C276.666 573.767 275.603 577.098 274.135 580.256C273.983 580.522 273.856 580.801 273.756 581.09C273.451 582.15 272.799 583.078 271.905 583.725C271.175 583.705 270.442 583.705 269.709 583.705ZM299.877 289.395C298.746 288.757 297.9 288.295 297.077 287.809C294.274 286.187 291.704 284.191 289.439 281.876C285.979 278.318 283.343 274.043 281.718 269.354C281.093 267.572 280.606 265.74 280.044 263.94C279.93 263.681 279.797 263.432 279.644 263.194C279.359 263.562 279.097 263.949 278.861 264.35C277.861 266.302 276.883 268.273 275.866 270.219C272.561 276.754 268.741 283.016 264.443 288.945C261.391 293.294 257.911 297.324 254.053 300.977C253.194 301.754 252.316 302.512 251.463 303.296C251.166 303.603 250.886 303.926 250.623 304.263C251.554 305.186 252.557 306.033 253.623 306.796C256.022 308.584 258.275 310.562 260.358 312.71C261.958 314.391 263.549 316.077 265.141 317.758C265.596 318.238 266.063 318.712 266.626 319.293C276.028 307.602 287.256 297.507 299.877 289.395Z" fill="#18A046"/>
</svg>
