<svg xmlns="http://www.w3.org/2000/svg" width="218.102" height="251.29" viewBox="0 0 218.102 251.29">
  <g id="Group_5" data-name="Group 5" transform="translate(-3204.274 -1201.102)">
    <g id="Group_4" data-name="Group 4" transform="matrix(0.848, -0.53, 0.53, 0.848, 2118.912, 1150.508)">
      <path id="Path_1" data-name="Path 1" d="M913.178,921.318a72.953,72.953,0,0,1,72.081,61.74,72.936,72.936,0,1,0-144.162,0A72.953,72.953,0,0,1,913.178,921.318Z" transform="translate(0 -106.554)" fill="#e73e43" stroke="#000" stroke-miterlimit="10" stroke-width="1.254"/>
      <rect id="Rectangle_7" data-name="Rectangle 7" width="39.131" height="10.87" transform="translate(893.599 830.633)" fill="none"/>
      <path id="Path_2" data-name="Path 2" d="M980.288,765.143c0,5.561-.481,38.8-18.016,71.984a76.517,76.517,0,0,0-51.708-.074,149.49,149.49,0,0,1-18.213-71.91,162.321,162.321,0,0,1,6.639-43.716q1.161-3.975,2.6-8.107c.285-.809.578-1.624.878-2.439l0,0c.122-.328.243-.654.367-.983s.24-.633.361-.95q.384-1,.791-2.006c.126-.32.257-.639.385-.957.113-.274.226-.548.341-.822q.138-.332.279-.665c.137-.329.278-.654.42-.983q.176-.414.359-.828c.12-.274.241-.55.363-.826q.424-.949.863-1.9.254-.551.517-1.1.209-.449.429-.9c.161-.335.322-.669.487-1,.148-.3.3-.6.448-.907.185-.367.37-.735.559-1.1.17-.337.344-.672.518-1.007l.413-.785q.9-1.7,1.857-3.4c.159-.281.317-.563.48-.843.124-.216.248-.431.374-.646.1-.181.208-.361.315-.541q.49-.831.993-1.661.254-.424.52-.848c.161-.263.324-.524.487-.785.011-.017.022-.037.035-.054.143-.231.289-.461.435-.689.07-.111.141-.222.213-.333.128-.2.257-.4.387-.6q.815-1.258,1.67-2.513c.167-.247.339-.5.513-.745q.531-.773,1.082-1.544.333-.469.672-.937c.03-.039.058-.081.089-.12.22-.3.444-.606.667-.909s.438-.587.659-.878q1.432-1.9,2.959-3.772c.157-.189.311-.379.467-.568.191-.232.382-.463.576-.693.215-.257.43-.511.648-.765q1.144-1.347,2.345-2.676.274-.307.555-.611.294-.323.593-.646t.618-.659q1.031-1.1,2.1-2.178c.246-.25.493-.5.743-.748.072-.072.146-.146.22-.218.231-.228.461-.454.694-.678.048-.05.1-.1.146-.143.2-.2.4-.394.609-.589.4-.387.815-.776,1.228-1.161.213.2.487.456.813.769l.246.237.015.013.27.263.026.026.161.159c.108.106.224.22.341.337l.178.178c.061.058.122.122.185.185s.126.126.189.189c.2.2.4.409.619.63.172.178.35.361.533.553.267.278.543.569.83.874l.413.441c.685.737,1.422,1.55,2.2,2.435.159.178.315.359.476.541.389.448.791.915,1.2,1.4.1.12.2.239.3.359.946,1.126,1.939,2.343,2.967,3.65.1.126.193.25.294.378q1.347,1.725,2.761,3.657.469.643.946,1.311.633.887,1.276,1.816c.106.156.215.311.321.467s.216.313.322.471c.215.317.431.635.648.959q.811,1.21,1.626,2.48.981,1.526,1.961,3.141.819,1.343,1.633,2.752.323.565.65,1.135.444.775.882,1.576c.028.055.059.108.089.163q1.294,2.348,2.557,4.85c.208.417.42.837.628,1.261q.939,1.9,1.85,3.9c.1.221.2.443.3.665.111.246.22.491.33.737q.737,1.647,1.446,3.352a.008.008,0,0,0,0,.007q.713,1.708,1.395,3.476c.009.023.018.045.027.068h0q.469,1.213.925,2.45,1.415,3.848,2.667,7.955A150.251,150.251,0,0,1,980.288,765.143Z" transform="translate(-23.143)" fill="#e6e6e6" stroke="#000" stroke-miterlimit="10" stroke-width="1.254"/>
      <path id="Path_3" data-name="Path 3" d="M973.657,931.163A94.754,94.754,0,0,1,961.7,977.088a94.173,94.173,0,0,1,0-91.85A94.935,94.935,0,0,1,973.657,931.163Z" transform="translate(-48.631 -100.475)" fill="#e73e43" stroke="#000" stroke-miterlimit="10" stroke-width="1.254"/>
      <path id="Path_4" data-name="Path 4" d="M845.326,758.92" transform="translate(-2.258 -44.376)" fill="none" stroke="#000" stroke-miterlimit="10" stroke-width="1.254"/>
      <path id="Path_5" data-name="Path 5" d="M978.541,714.869l-1.418-.332a154.156,154.156,0,0,0-66.771.026l-1.376.322c.285-.809.578-1.624.878-2.439l0,0c.122-.328.244-.654.367-.983s.24-.633.361-.95q.384-1,.791-2.006c.126-.32.257-.639.385-.957.113-.274.226-.548.341-.822.092-.222.185-.444.279-.665.137-.328.278-.654.42-.983q.176-.414.359-.828c.12-.273.241-.55.363-.826q.424-.949.863-1.9.254-.551.517-1.1.209-.45.429-.9c.161-.335.322-.67.487-1,.148-.3.3-.6.448-.907.185-.367.37-.735.559-1.1.17-.337.344-.672.518-1.006.137-.261.274-.522.413-.785q.9-1.7,1.857-3.4c.159-.28.317-.563.48-.843.124-.215.248-.43.374-.646.1-.18.208-.361.315-.541q.489-.832.993-1.661.254-.425.52-.848c.161-.263.324-.524.487-.785a.613.613,0,0,1,.035-.054c.143-.231.289-.461.435-.689.069-.111.141-.222.213-.332q.193-.3.387-.6.816-1.259,1.67-2.513c.167-.248.339-.5.513-.746q.531-.773,1.082-1.543.333-.47.672-.937c.03-.039.058-.081.089-.12.22-.3.444-.606.667-.909s.438-.587.659-.878q1.432-1.9,2.959-3.772c.157-.189.311-.378.467-.568.191-.232.382-.463.576-.693.215-.257.43-.511.648-.765q1.144-1.347,2.345-2.676c.183-.2.367-.409.555-.611s.393-.43.593-.645.411-.439.618-.659q1.031-1.1,2.1-2.179c.246-.25.493-.5.743-.748.072-.072.146-.146.22-.217.231-.229.461-.455.694-.678.048-.05.1-.1.146-.144q.3-.3.609-.589c.4-.387.815-.776,1.228-1.161.214.2.487.457.813.77l.246.237.015.013.27.263.026.026.161.158c.109.107.224.22.341.337l.178.178c.061.059.122.122.185.185s.126.126.189.19c.2.2.4.409.619.63.172.176.35.361.533.552q.4.418.83.874c.135.143.274.291.413.441.685.737,1.422,1.55,2.2,2.435q.235.264.476.541.584.672,1.2,1.4c.1.12.2.239.3.359.946,1.126,1.939,2.344,2.967,3.65.1.126.193.25.293.379q1.347,1.724,2.761,3.656.469.643.946,1.311.633.886,1.276,1.815c.106.157.215.311.321.468s.216.313.322.472c.215.317.431.635.648.958q.811,1.21,1.626,2.48.981,1.527,1.961,3.141.819,1.344,1.633,2.753l.65,1.135q.444.776.882,1.576c.028.054.059.109.089.163q1.294,2.347,2.557,4.85c.208.417.42.837.628,1.261q.939,1.9,1.85,3.9c.1.222.2.444.3.665.111.245.22.491.33.737q.737,1.647,1.446,3.353a.007.007,0,0,0,0,.006q.713,1.709,1.395,3.476c.009.023.018.045.027.068h0Q978.085,713.633,978.541,714.869Z" transform="translate(-30.526 -0.695)" fill="#fff" stroke="#000" stroke-miterlimit="10" stroke-width="1.254"/>
      <g id="Group_3" data-name="Group 3" transform="translate(879.326 659.003)">
        <g id="Group_1" data-name="Group 1">
          <path id="Path_6" data-name="Path 6" d="M944.49,707.156a149.752,149.752,0,0,0-33.939,3.731c0-.007,0-.007.007-.007.118-.328.244-.655.362-.983s.245-.634.363-.948q.387-1,.795-2.008c.126-.321.251-.641.384-.955.111-.272.223-.551.341-.823.091-.223.182-.446.279-.662.133-.328.279-.655.419-.983.118-.279.237-.551.356-.83s.244-.551.362-.823c.286-.634.572-1.269.864-1.9.167-.362.342-.732.516-1.1.14-.3.286-.6.432-.9.161-.335.321-.669.489-1,.146-.307.292-.606.446-.907.182-.37.37-.739.558-1.1.167-.342.342-.677.516-1.011.14-.258.272-.523.411-.781.6-1.136,1.221-2.266,1.862-3.4.153-.279.313-.558.481-.844.118-.21.244-.425.37-.641l.314-.544c.328-.551.663-1.108,1-1.659.167-.286.342-.565.516-.851.16-.258.327-.523.488-.781.014-.021.021-.034.034-.056l.44-.69c.069-.112.14-.223.209-.328.126-.2.258-.4.391-.607.544-.837,1.095-1.673,1.667-2.51.167-.244.341-.495.516-.746.349-.516.711-1.032,1.081-1.541l.669-.942a.765.765,0,0,0,.091-.118c.216-.3.446-.606.669-.907s.432-.585.655-.878c.956-1.262,1.946-2.524,2.957-3.773.16-.188.314-.376.467-.565.2-.237.384-.467.579-.7.216-.251.432-.509.649-.76.76-.9,1.548-1.792,2.343-2.678.188-.209.37-.411.557-.613s.391-.432.593-.642.411-.439.614-.662c.69-.732,1.387-1.458,2.106-2.176.244-.251.488-.5.739-.746l.223-.223c.23-.223.46-.453.69-.676l.146-.147.607-.586c.4-.384.816-.774,1.234-1.157.209.2.481.453.809.767.077.077.161.153.244.237.007,0,.014.007.021.014.083.084.174.168.265.258l.028.028c.049.056.1.1.16.16.112.1.223.216.342.335.056.063.118.119.181.182l.181.181.188.188c.2.2.4.412.62.635.175.175.349.362.53.551.272.279.544.572.829.872.14.146.279.293.419.446.683.732,1.422,1.548,2.2,2.434.16.174.314.356.474.537.39.453.795.921,1.206,1.4.1.118.2.237.3.356.948,1.13,1.938,2.343,2.971,3.654.091.126.2.251.293.376q1.349,1.726,2.761,3.654c.314.432.628.872.942,1.311q.638.889,1.276,1.82c.112.153.216.307.328.467s.209.314.321.467c.216.321.425.634.649.962.537.809,1.081,1.631,1.624,2.483q.973,1.527,1.959,3.138c.544.9,1.088,1.813,1.632,2.754.216.376.432.753.648,1.136.293.516.593,1.039.886,1.576.028.049.056.105.091.161.858,1.562,1.715,3.18,2.552,4.846.209.419.418.844.628,1.262.628,1.269,1.241,2.573,1.855,3.9.1.223.2.446.3.663.112.251.223.495.328.739.495,1.1.976,2.217,1.45,3.354v.007q.721,1.747,1.423,3.542A150.064,150.064,0,0,0,944.49,707.156Z" transform="translate(-910.551 -659.006)" fill="#e73e43"/>
        </g>
        <g id="Group_2" data-name="Group 2">
          <path id="Path_7" data-name="Path 7" d="M978.317,710.859a156.306,156.306,0,0,0-67.766.028c0-.007,0-.007.007-.007.118-.328.244-.655.362-.983s.245-.634.363-.948q.387-1,.795-2.008c.126-.321.251-.641.384-.955.111-.272.223-.551.341-.823.091-.223.182-.446.279-.662.133-.328.279-.655.419-.983.118-.279.237-.551.356-.83s.244-.551.362-.823c.286-.634.572-1.269.864-1.9.167-.362.342-.732.516-1.1.14-.3.286-.6.432-.9.161-.335.321-.669.489-1,.146-.307.292-.606.446-.907.182-.37.37-.739.558-1.1.167-.342.342-.677.516-1.011.14-.258.272-.523.411-.781.6-1.136,1.221-2.266,1.862-3.4.153-.279.313-.558.481-.844.118-.21.244-.425.37-.641l.314-.544c.328-.551.663-1.108,1-1.659.167-.286.342-.565.516-.851.16-.258.327-.523.488-.781.014-.021.021-.034.034-.056l.44-.69c.069-.112.14-.223.209-.328.126-.2.258-.4.391-.607.544-.837,1.095-1.673,1.667-2.51.167-.244.341-.495.516-.746.349-.516.711-1.032,1.081-1.541l.669-.942a.765.765,0,0,0,.091-.118c.216-.3.446-.606.669-.907s.432-.585.655-.878c.956-1.262,1.946-2.524,2.957-3.773.16-.188.314-.376.467-.565.2-.237.384-.467.579-.7.216-.251.432-.509.649-.76.76-.9,1.548-1.792,2.343-2.678.188-.209.37-.411.557-.613s.391-.432.593-.642.411-.439.614-.662c.69-.732,1.387-1.458,2.106-2.176.244-.251.488-.5.739-.746l.223-.223c.23-.223.46-.453.69-.676l.146-.147.607-.586c.4-.384.816-.774,1.234-1.157.209.2.481.453.809.767.077.077.161.153.244.237.007,0,.014.007.021.014.083.084.174.168.265.258l.028.028c.049.056.1.1.16.16.112.1.223.216.342.335.056.063.118.119.181.182l.181.181.188.188c.2.2.4.412.62.635.175.175.349.362.53.551.272.279.544.572.829.872.14.146.279.293.419.446.683.732,1.422,1.548,2.2,2.434.16.174.314.356.474.537.39.453.795.921,1.206,1.4.1.118.2.237.3.356.948,1.13,1.938,2.343,2.971,3.654.091.126.2.251.293.376q1.349,1.726,2.761,3.654c.314.432.628.872.942,1.311q.638.889,1.276,1.82c.112.153.216.307.328.467s.209.314.321.467c.216.321.425.634.649.962.537.809,1.081,1.631,1.624,2.483q.973,1.527,1.959,3.138c.544.9,1.088,1.813,1.632,2.754.216.376.432.753.648,1.136.293.516.593,1.039.886,1.576.028.049.056.105.091.161.858,1.562,1.715,3.18,2.552,4.846.209.419.418.844.628,1.262.628,1.269,1.241,2.573,1.855,3.9.1.223.2.446.3.663.112.251.223.495.328.739.495,1.1.976,2.217,1.45,3.354v.007Q977.615,709.063,978.317,710.859Z" transform="translate(-910.551 -659.006)" fill="none" stroke="#000" stroke-miterlimit="10" stroke-width="1.254"/>
        </g>
      </g>
      <circle id="Ellipse_1" data-name="Ellipse 1" cx="18.044" cy="18.044" r="18.044" transform="translate(895.121 729.762)" fill="#e73e43" stroke="#000" stroke-miterlimit="10" stroke-width="1.254"/>
      <circle id="Ellipse_2" data-name="Ellipse 2" cx="13.044" cy="13.044" r="13.044" transform="translate(900.121 734.98)" fill="#fff" stroke="#000" stroke-miterlimit="10" stroke-width="1.254"/>
      <path id="Path_8" data-name="Path 8" d="M971.253,885.238" transform="translate(-58.184 -100.475)" fill="#fff" stroke="#000" stroke-miterlimit="10" stroke-width="1.254"/>
      <path id="Path_9" data-name="Path 9" d="M971.253,709.424" transform="translate(-58.184 -22.394)" fill="#fff" stroke="#000" stroke-miterlimit="10" stroke-width="1.254"/>
      <line id="Line_1" data-name="Line 1" x2="0.089" y2="48.153" transform="translate(913.177 659)" fill="none" stroke="#000" stroke-miterlimit="10" stroke-width="1.254"/>
      <line id="Line_2" data-name="Line 2" y2="91.849" transform="translate(913.069 784.763)" fill="none" stroke="#000" stroke-miterlimit="10" stroke-width="1.254"/>
    </g>
  </g>
</svg>
