<svg xmlns="http://www.w3.org/2000/svg" xmlns:xlink="http://www.w3.org/1999/xlink" width="133.06" height="133.063" viewBox="0 0 133.06 133.063">
  <defs>
    <clipPath id="clip-path">
      <path id="Path_212" data-name="Path 212" d="M287.8,996.665c-11.694,33.765-51.133,53.385-84.965,41.252-33.266-11.929-52.884-51.378-41.252-84.964S213.024,900.5,246.543,911.7C280.632,923.09,299.489,962.9,287.8,996.665Z" fill="none"/>
    </clipPath>
  </defs>
  <g id="Group_13" data-name="Group 13" transform="translate(-158.208 -908.465)">
    <g id="Group_12" data-name="Group 12">
      <g id="Group_11" data-name="Group 11" clip-path="url(#clip-path)">
        <path id="Path_10" data-name="Path 10" d="M273.838,1064.462l-31.282-10.834q22.479-64.907,44.958-129.813L318.8,934.648Q296.316,999.555,273.838,1064.462Z" fill="#384a68"/>
        <path id="Path_11" data-name="Path 11" d="M165.387,1026.9l-31.281-10.834q22.478-64.906,44.957-129.814l31.282,10.834Z" fill="#3e87ff"/>
        <g id="Group_6" data-name="Group 6">
          <path id="Path_12" data-name="Path 12" d="M212.034,923.116,184.565,913.6a1.716,1.716,0,0,1-1.06-2.184h0a1.715,1.715,0,0,1,2.184-1.061l27.469,9.513a1.718,1.718,0,0,1,1.061,2.185h0A1.717,1.717,0,0,1,212.034,923.116Z" fill="#104392"/>
          <path id="Path_13" data-name="Path 13" d="M208.685,918.322l-27.468-9.513a1.717,1.717,0,0,1-1.061-2.185h0a1.716,1.716,0,0,1,2.185-1.06l27.468,9.513a1.717,1.717,0,0,1,1.061,2.184h0A1.718,1.718,0,0,1,208.685,918.322Z" fill="#104392"/>
          <path id="Path_14" data-name="Path 14" d="M220.276,918.7q-13.734-4.755-27.468-9.513A1.715,1.715,0,0,1,191.747,907h0a1.717,1.717,0,0,1,2.184-1.061l27.469,9.513a1.719,1.719,0,0,1,1.061,2.185h0A1.717,1.717,0,0,1,220.276,918.7Z" fill="#104392"/>
          <path id="Path_15" data-name="Path 15" d="M207.659,910.7l-27.469-9.513A1.717,1.717,0,0,1,179.129,899h0a1.718,1.718,0,0,1,2.185-1.061l27.469,9.513a1.716,1.716,0,0,1,1.06,2.185h0A1.716,1.716,0,0,1,207.659,910.7Z" fill="#104392"/>
          <path id="Path_16" data-name="Path 16" d="M216.541,910.139l-24.181-8.375a1.717,1.717,0,0,1-1.061-2.184h0a1.719,1.719,0,0,1,2.185-1.061l24.181,8.374a1.719,1.719,0,0,1,1.061,2.185h0A1.719,1.719,0,0,1,216.541,910.139Z" fill="#104392"/>
          <path id="Path_17" data-name="Path 17" d="M215.958,906.3l-27.469-9.513a1.716,1.716,0,0,1-1.06-2.184h0a1.716,1.716,0,0,1,2.184-1.061l27.469,9.513a1.718,1.718,0,0,1,1.061,2.185h0A1.717,1.717,0,0,1,215.958,906.3Z" fill="#104392"/>
          <path id="Path_18" data-name="Path 18" d="M227.794,906.767l-27.468-9.513a1.718,1.718,0,0,1-1.061-2.185h0a1.717,1.717,0,0,1,2.185-1.06l27.468,9.513a1.717,1.717,0,0,1,1.061,2.184h0A1.718,1.718,0,0,1,227.794,906.767Z" fill="#104392"/>
          <path id="Path_19" data-name="Path 19" d="M204.166,945.834,176.7,936.321a1.718,1.718,0,0,1-1.061-2.185h0a1.718,1.718,0,0,1,2.185-1.061l27.468,9.513a1.719,1.719,0,0,1,1.061,2.185h0A1.718,1.718,0,0,1,204.166,945.834Z" fill="#104392"/>
          <path id="Path_20" data-name="Path 20" d="M200.818,941.039l-27.469-9.513a1.717,1.717,0,0,1-1.061-2.184h0a1.718,1.718,0,0,1,2.185-1.061l27.469,9.513a1.716,1.716,0,0,1,1.06,2.185h0A1.716,1.716,0,0,1,200.818,941.039Z" fill="#104392"/>
          <path id="Path_21" data-name="Path 21" d="M212.408,941.419l-27.468-9.513a1.718,1.718,0,0,1-1.061-2.185h0a1.717,1.717,0,0,1,2.185-1.06l27.468,9.513a1.716,1.716,0,0,1,1.061,2.184h0A1.718,1.718,0,0,1,212.408,941.419Z" fill="#104392"/>
          <path id="Path_22" data-name="Path 22" d="M199.791,933.415,172.323,923.9a1.717,1.717,0,0,1-1.061-2.185h0a1.717,1.717,0,0,1,2.184-1.061l27.469,9.513a1.719,1.719,0,0,1,1.061,2.185h0A1.718,1.718,0,0,1,199.791,933.415Z" fill="#104392"/>
          <path id="Path_23" data-name="Path 23" d="M223.061,937.839l-25.08-8.686a1.717,1.717,0,0,1-1.061-2.184h0a1.717,1.717,0,0,1,2.185-1.061l25.08,8.686a1.716,1.716,0,0,1,1.06,2.184h0A1.717,1.717,0,0,1,223.061,937.839Z" fill="#104392"/>
          <path id="Path_24" data-name="Path 24" d="M213.967,931.055l-33.345-11.548a1.719,1.719,0,0,1-1.061-2.185h0a1.718,1.718,0,0,1,2.185-1.061l33.344,11.548a1.717,1.717,0,0,1,1.061,2.185h0A1.717,1.717,0,0,1,213.967,931.055Z" fill="#104392"/>
          <path id="Path_25" data-name="Path 25" d="M219.927,929.484l-27.469-9.513a1.716,1.716,0,0,1-1.06-2.184h0a1.717,1.717,0,0,1,2.184-1.061l27.469,9.513a1.716,1.716,0,0,1,1.06,2.185h0A1.716,1.716,0,0,1,219.927,929.484Z" fill="#104392"/>
          <path id="Path_26" data-name="Path 26" d="M196.3,968.551l-24.21-8.385a1.715,1.715,0,0,1-1.061-2.184h0a1.718,1.718,0,0,1,2.185-1.061l24.21,8.385a1.716,1.716,0,0,1,1.06,2.184h0A1.717,1.717,0,0,1,196.3,968.551Z" fill="#104392"/>
          <path id="Path_27" data-name="Path 27" d="M192.95,963.757l-23.825-8.252a1.717,1.717,0,0,1-1.061-2.184h0a1.719,1.719,0,0,1,2.185-1.061l23.825,8.251a1.719,1.719,0,0,1,1.061,2.185h0A1.719,1.719,0,0,1,192.95,963.757Z" fill="#104392"/>
          <path id="Path_28" data-name="Path 28" d="M204.541,964.136l-27.469-9.513a1.716,1.716,0,0,1-1.06-2.184h0a1.716,1.716,0,0,1,2.184-1.061l27.469,9.513a1.718,1.718,0,0,1,1.061,2.185h0A1.717,1.717,0,0,1,204.541,964.136Z" fill="#104392"/>
          <path id="Path_29" data-name="Path 29" d="M191.924,956.132l-27.469-9.513a1.718,1.718,0,0,1-1.061-2.185h0a1.717,1.717,0,0,1,2.185-1.06l27.469,9.513a1.716,1.716,0,0,1,1.06,2.184h0A1.717,1.717,0,0,1,191.924,956.132Z" fill="#104392"/>
          <path id="Path_30" data-name="Path 30" d="M204.094,956.712,176.625,947.2a1.717,1.717,0,0,1-1.061-2.184h0a1.717,1.717,0,0,1,2.185-1.061l27.469,9.513a1.716,1.716,0,0,1,1.06,2.184h0A1.715,1.715,0,0,1,204.094,956.712Z" fill="#104392"/>
          <path id="Path_31" data-name="Path 31" d="M200.223,951.737l-27.469-9.513a1.718,1.718,0,0,1-1.061-2.185h0a1.717,1.717,0,0,1,2.185-1.06l27.469,9.513a1.716,1.716,0,0,1,1.06,2.184h0A1.716,1.716,0,0,1,200.223,951.737Z" fill="#104392"/>
          <path id="Path_32" data-name="Path 32" d="M212.059,952.2l-27.468-9.513a1.719,1.719,0,0,1-1.061-2.185h0a1.718,1.718,0,0,1,2.185-1.061l27.468,9.513a1.719,1.719,0,0,1,1.061,2.185h0A1.719,1.719,0,0,1,212.059,952.2Z" fill="#104392"/>
          <path id="Path_33" data-name="Path 33" d="M188.431,991.268l-27.468-9.513a1.715,1.715,0,0,1-1.061-2.184h0a1.716,1.716,0,0,1,2.184-1.061l27.469,9.513a1.718,1.718,0,0,1,1.061,2.185h0A1.717,1.717,0,0,1,188.431,991.268Z" fill="#104392"/>
          <path id="Path_34" data-name="Path 34" d="M182.7,985.649l-25.086-8.688a1.718,1.718,0,0,1-1.061-2.185h0a1.717,1.717,0,0,1,2.185-1.06l25.086,8.688a1.717,1.717,0,0,1,1.061,2.184h0A1.719,1.719,0,0,1,182.7,985.649Z" fill="#104392"/>
          <path id="Path_35" data-name="Path 35" d="M196.673,986.854l-27.468-9.513a1.719,1.719,0,0,1-1.061-2.185h0a1.718,1.718,0,0,1,2.185-1.061l27.468,9.513a1.719,1.719,0,0,1,1.061,2.185h0A1.718,1.718,0,0,1,196.673,986.854Z" fill="#104392"/>
          <path id="Path_36" data-name="Path 36" d="M184.056,978.849l-27.469-9.513a1.716,1.716,0,0,1-1.06-2.184h0a1.716,1.716,0,0,1,2.184-1.061L185.18,975.6a1.718,1.718,0,0,1,1.061,2.185h0A1.717,1.717,0,0,1,184.056,978.849Z" fill="#104392"/>
          <path id="Path_37" data-name="Path 37" d="M196.226,979.43l-27.469-9.513a1.717,1.717,0,0,1-1.06-2.185h0a1.717,1.717,0,0,1,2.184-1.061l27.469,9.513a1.719,1.719,0,0,1,1.061,2.185h0A1.719,1.719,0,0,1,196.226,979.43Z" fill="#104392"/>
          <path id="Path_38" data-name="Path 38" d="M192.355,974.454l-27.468-9.513a1.716,1.716,0,0,1-1.061-2.184h0a1.717,1.717,0,0,1,2.185-1.061l27.468,9.513a1.718,1.718,0,0,1,1.061,2.185h0A1.717,1.717,0,0,1,192.355,974.454Z" fill="#104392"/>
          <path id="Path_39" data-name="Path 39" d="M182.587,1011.052l-27.469-9.513a1.719,1.719,0,0,1-1.061-2.185h0a1.717,1.717,0,0,1,2.185-1.06l27.469,9.513a1.716,1.716,0,0,1,1.06,2.184h0A1.717,1.717,0,0,1,182.587,1011.052Z" fill="#104392"/>
          <path id="Path_40" data-name="Path 40" d="M179.238,1006.258l-27.469-9.513a1.717,1.717,0,0,1-1.06-2.185h0a1.717,1.717,0,0,1,2.184-1.061l27.469,9.513a1.719,1.719,0,0,1,1.061,2.185h0A1.719,1.719,0,0,1,179.238,1006.258Z" fill="#104392"/>
          <path id="Path_41" data-name="Path 41" d="M190.829,1006.637l-27.469-9.513a1.716,1.716,0,0,1-1.06-2.184h0a1.715,1.715,0,0,1,2.184-1.061l27.469,9.513a1.717,1.717,0,0,1,1.061,2.184h0A1.717,1.717,0,0,1,190.829,1006.637Z" fill="#104392"/>
          <path id="Path_42" data-name="Path 42" d="M178.212,998.633l-27.469-9.513a1.718,1.718,0,0,1-1.061-2.185h0a1.717,1.717,0,0,1,2.185-1.06l27.469,9.513a1.716,1.716,0,0,1,1.06,2.184h0A1.717,1.717,0,0,1,178.212,998.633Z" fill="#104392"/>
          <path id="Path_43" data-name="Path 43" d="M190.382,999.213,162.913,989.7a1.718,1.718,0,0,1-1.061-2.185h0a1.717,1.717,0,0,1,2.185-1.06l27.469,9.513a1.716,1.716,0,0,1,1.06,2.184h0A1.716,1.716,0,0,1,190.382,999.213Z" fill="#104392"/>
          <path id="Path_44" data-name="Path 44" d="M186.511,994.238l-27.469-9.513a1.719,1.719,0,0,1-1.061-2.185h0a1.717,1.717,0,0,1,2.185-1.06l27.469,9.513a1.716,1.716,0,0,1,1.06,2.184h0A1.717,1.717,0,0,1,186.511,994.238Z" fill="#104392"/>
          <path id="Path_45" data-name="Path 45" d="M204.192,974.919l-27.469-9.513a1.718,1.718,0,0,1-1.061-2.185h0a1.717,1.717,0,0,1,2.185-1.06l27.469,9.513a1.716,1.716,0,0,1,1.06,2.184h0A1.716,1.716,0,0,1,204.192,974.919Z" fill="#104392"/>
          <path id="Path_46" data-name="Path 46" d="M169.56,1028.348l-25.086-8.688a1.718,1.718,0,0,1-1.061-2.185h0a1.717,1.717,0,0,1,2.185-1.06l25.086,8.688a1.717,1.717,0,0,1,1.061,2.184h0A1.719,1.719,0,0,1,169.56,1028.348Z" fill="#104392"/>
          <path id="Path_47" data-name="Path 47" d="M183.534,1029.553l-27.469-9.513a1.719,1.719,0,0,1-1.061-2.185h0a1.719,1.719,0,0,1,2.185-1.061l27.469,9.513a1.717,1.717,0,0,1,1.06,2.185h0A1.717,1.717,0,0,1,183.534,1029.553Z" fill="#104392"/>
          <path id="Path_48" data-name="Path 48" d="M170.916,1021.548q-13.734-4.755-27.468-9.513a1.716,1.716,0,0,1-1.061-2.184h0a1.718,1.718,0,0,1,2.185-1.061l27.468,9.513a1.718,1.718,0,0,1,1.061,2.185h0A1.716,1.716,0,0,1,170.916,1021.548Z" fill="#104392"/>
          <path id="Path_49" data-name="Path 49" d="M183.086,1022.129l-27.468-9.513a1.718,1.718,0,0,1-1.061-2.185h0a1.718,1.718,0,0,1,2.185-1.061l27.468,9.513a1.719,1.719,0,0,1,1.061,2.185h0A1.718,1.718,0,0,1,183.086,1022.129Z" fill="#104392"/>
          <path id="Path_50" data-name="Path 50" d="M179.216,1017.154l-27.469-9.514a1.717,1.717,0,0,1-1.061-2.184h0a1.718,1.718,0,0,1,2.185-1.061l27.468,9.513a1.717,1.717,0,0,1,1.061,2.185h0A1.717,1.717,0,0,1,179.216,1017.154Z" fill="#104392"/>
          <path id="Path_51" data-name="Path 51" d="M191.052,1017.618l-27.469-9.513a1.716,1.716,0,0,1-1.06-2.184h0a1.715,1.715,0,0,1,2.184-1.061l27.469,9.513a1.716,1.716,0,0,1,1.06,2.184h0A1.716,1.716,0,0,1,191.052,1017.618Z" fill="#104392"/>
        </g>
        <g id="Group_7" data-name="Group 7">
          <path id="Path_52" data-name="Path 52" d="M229.664,929.222,202.2,919.709a1.717,1.717,0,0,1-1.06-2.185h0a1.716,1.716,0,0,1,2.184-1.06l27.469,9.513a1.716,1.716,0,0,1,1.06,2.184h0A1.717,1.717,0,0,1,229.664,929.222Z" fill="#b3b9ed"/>
          <path id="Path_53" data-name="Path 53" d="M226.315,924.428l-27.468-9.513a1.719,1.719,0,0,1-1.061-2.185h0a1.718,1.718,0,0,1,2.185-1.061l27.468,9.513a1.719,1.719,0,0,1,1.061,2.185h0A1.719,1.719,0,0,1,226.315,924.428Z" fill="#b3b9ed"/>
          <path id="Path_54" data-name="Path 54" d="M237.906,924.807l-27.468-9.513a1.716,1.716,0,0,1-1.061-2.184h0a1.717,1.717,0,0,1,2.185-1.061l27.468,9.513a1.716,1.716,0,0,1,1.06,2.184h0A1.716,1.716,0,0,1,237.906,924.807Z" fill="#b3b9ed"/>
          <path id="Path_55" data-name="Path 55" d="M225.289,916.8,197.82,907.29a1.717,1.717,0,0,1-1.06-2.185h0a1.716,1.716,0,0,1,2.184-1.06l27.469,9.513a1.716,1.716,0,0,1,1.06,2.184h0A1.717,1.717,0,0,1,225.289,916.8Z" fill="#b3b9ed"/>
          <path id="Path_56" data-name="Path 56" d="M234.171,916.244,209.99,907.87a1.716,1.716,0,0,1-1.06-2.185h0a1.716,1.716,0,0,1,2.184-1.06L235.295,913a1.718,1.718,0,0,1,1.061,2.185h0A1.717,1.717,0,0,1,234.171,916.244Z" fill="#b3b9ed"/>
          <path id="Path_57" data-name="Path 57" d="M233.588,912.408,206.119,902.9a1.716,1.716,0,0,1-1.06-2.185h0a1.716,1.716,0,0,1,2.184-1.06l27.469,9.513a1.716,1.716,0,0,1,1.06,2.184h0A1.717,1.717,0,0,1,233.588,912.408Z" fill="#b3b9ed"/>
          <path id="Path_58" data-name="Path 58" d="M245.424,912.872l-27.468-9.512a1.719,1.719,0,0,1-1.061-2.185h0a1.719,1.719,0,0,1,2.185-1.061l27.468,9.513a1.719,1.719,0,0,1,1.061,2.185h0A1.717,1.717,0,0,1,245.424,912.872Z" fill="#b3b9ed"/>
          <path id="Path_59" data-name="Path 59" d="M221.8,951.939l-27.468-9.513a1.717,1.717,0,0,1-1.061-2.184h0a1.718,1.718,0,0,1,2.185-1.061l27.468,9.513a1.718,1.718,0,0,1,1.061,2.185h0A1.717,1.717,0,0,1,221.8,951.939Z" fill="#b3b9ed"/>
          <path id="Path_60" data-name="Path 60" d="M218.448,947.145l-27.469-9.513a1.718,1.718,0,0,1-1.061-2.185h0a1.717,1.717,0,0,1,2.185-1.06l27.469,9.513a1.716,1.716,0,0,1,1.06,2.184h0A1.717,1.717,0,0,1,218.448,947.145Z" fill="#b3b9ed"/>
          <path id="Path_61" data-name="Path 61" d="M230.038,947.525l-27.468-9.513a1.719,1.719,0,0,1-1.061-2.185h0a1.719,1.719,0,0,1,2.185-1.061l27.468,9.513a1.719,1.719,0,0,1,1.061,2.185h0A1.718,1.718,0,0,1,230.038,947.525Z" fill="#b3b9ed"/>
          <path id="Path_62" data-name="Path 62" d="M217.421,939.52l-27.468-9.513a1.717,1.717,0,0,1-1.061-2.184h0a1.718,1.718,0,0,1,2.185-1.061l27.468,9.513a1.718,1.718,0,0,1,1.061,2.185h0A1.717,1.717,0,0,1,217.421,939.52Z" fill="#b3b9ed"/>
          <path id="Path_63" data-name="Path 63" d="M240.691,943.944l-25.08-8.685a1.719,1.719,0,0,1-1.061-2.185h0a1.719,1.719,0,0,1,2.185-1.061l25.08,8.686a1.717,1.717,0,0,1,1.06,2.185h0A1.716,1.716,0,0,1,240.691,943.944Z" fill="#b3b9ed"/>
          <path id="Path_64" data-name="Path 64" d="M231.6,937.16l-33.344-11.548a1.717,1.717,0,0,1-1.061-2.184h0a1.719,1.719,0,0,1,2.185-1.061l33.344,11.548a1.718,1.718,0,0,1,1.061,2.185h0A1.717,1.717,0,0,1,231.6,937.16Z" fill="#b3b9ed"/>
          <path id="Path_65" data-name="Path 65" d="M237.557,935.59l-27.469-9.513a1.716,1.716,0,0,1-1.06-2.185h0a1.716,1.716,0,0,1,2.184-1.06l27.468,9.513a1.715,1.715,0,0,1,1.061,2.184h0A1.717,1.717,0,0,1,237.557,935.59Z" fill="#b3b9ed"/>
          <path id="Path_66" data-name="Path 66" d="M213.929,974.657l-24.21-8.385a1.718,1.718,0,0,1-1.061-2.185h0a1.717,1.717,0,0,1,2.185-1.06l24.21,8.384a1.717,1.717,0,0,1,1.06,2.185h0A1.717,1.717,0,0,1,213.929,974.657Z" fill="#b3b9ed"/>
          <path id="Path_67" data-name="Path 67" d="M210.58,969.862l-23.825-8.251a1.716,1.716,0,0,1-1.06-2.184h0a1.716,1.716,0,0,1,2.184-1.061l23.825,8.251a1.718,1.718,0,0,1,1.061,2.185h0A1.717,1.717,0,0,1,210.58,969.862Z" fill="#b3b9ed"/>
          <path id="Path_68" data-name="Path 68" d="M222.171,970.242,194.7,960.729a1.717,1.717,0,0,1-1.061-2.185h0a1.716,1.716,0,0,1,2.184-1.06L223.295,967a1.716,1.716,0,0,1,1.06,2.184h0A1.717,1.717,0,0,1,222.171,970.242Z" fill="#b3b9ed"/>
          <path id="Path_69" data-name="Path 69" d="M209.554,962.238l-27.469-9.513a1.719,1.719,0,0,1-1.061-2.185h0a1.719,1.719,0,0,1,2.185-1.061l27.469,9.513a1.717,1.717,0,0,1,1.06,2.185h0A1.717,1.717,0,0,1,209.554,962.238Z" fill="#b3b9ed"/>
          <path id="Path_70" data-name="Path 70" d="M221.723,962.818,194.255,953.3a1.717,1.717,0,0,1-1.06-2.185h0a1.716,1.716,0,0,1,2.184-1.06l27.468,9.512a1.718,1.718,0,0,1,1.061,2.185h0A1.718,1.718,0,0,1,221.723,962.818Z" fill="#b3b9ed"/>
          <path id="Path_71" data-name="Path 71" d="M217.853,957.843l-27.469-9.513a1.717,1.717,0,0,1-1.06-2.185h0a1.717,1.717,0,0,1,2.184-1.061l27.469,9.513a1.717,1.717,0,0,1,1.06,2.185h0A1.717,1.717,0,0,1,217.853,957.843Z" fill="#b3b9ed"/>
          <path id="Path_72" data-name="Path 72" d="M229.689,958.307l-27.468-9.513a1.717,1.717,0,0,1-1.061-2.184h0a1.718,1.718,0,0,1,2.185-1.061l27.468,9.513a1.718,1.718,0,0,1,1.061,2.185h0A1.717,1.717,0,0,1,229.689,958.307Z" fill="#b3b9ed"/>
          <path id="Path_73" data-name="Path 73" d="M206.061,997.374l-27.468-9.513a1.718,1.718,0,0,1-1.061-2.185h0a1.716,1.716,0,0,1,2.185-1.06l27.468,9.513a1.717,1.717,0,0,1,1.061,2.184h0A1.719,1.719,0,0,1,206.061,997.374Z" fill="#b3b9ed"/>
          <path id="Path_74" data-name="Path 74" d="M200.33,991.755l-25.086-8.688a1.719,1.719,0,0,1-1.061-2.185h0a1.719,1.719,0,0,1,2.185-1.061l25.086,8.688a1.717,1.717,0,0,1,1.06,2.185h0A1.717,1.717,0,0,1,200.33,991.755Z" fill="#b3b9ed"/>
          <path id="Path_75" data-name="Path 75" d="M214.3,992.959l-27.468-9.513a1.717,1.717,0,0,1-1.061-2.184h0a1.719,1.719,0,0,1,2.185-1.061l27.468,9.513a1.718,1.718,0,0,1,1.061,2.185h0A1.717,1.717,0,0,1,214.3,992.959Z" fill="#b3b9ed"/>
          <path id="Path_76" data-name="Path 76" d="M201.686,984.955l-27.468-9.513a1.717,1.717,0,0,1-1.061-2.185h0a1.716,1.716,0,0,1,2.185-1.06l27.468,9.513a1.717,1.717,0,0,1,1.061,2.184h0A1.718,1.718,0,0,1,201.686,984.955Z" fill="#b3b9ed"/>
          <path id="Path_77" data-name="Path 77" d="M213.856,985.535l-27.468-9.513a1.717,1.717,0,0,1-1.061-2.184h0a1.717,1.717,0,0,1,2.185-1.061l27.468,9.513a1.717,1.717,0,0,1,1.061,2.184h0A1.717,1.717,0,0,1,213.856,985.535Z" fill="#b3b9ed"/>
          <path id="Path_78" data-name="Path 78" d="M209.985,980.56l-27.468-9.513a1.718,1.718,0,0,1-1.061-2.185h0a1.717,1.717,0,0,1,2.185-1.06l27.468,9.513a1.717,1.717,0,0,1,1.061,2.184h0A1.718,1.718,0,0,1,209.985,980.56Z" fill="#b3b9ed"/>
          <path id="Path_79" data-name="Path 79" d="M200.217,1017.158l-27.469-9.513a1.717,1.717,0,0,1-1.06-2.185h0a1.717,1.717,0,0,1,2.184-1.061l27.469,9.513a1.717,1.717,0,0,1,1.06,2.185h0A1.717,1.717,0,0,1,200.217,1017.158Z" fill="#b3b9ed"/>
          <path id="Path_80" data-name="Path 80" d="M196.868,1012.363,169.4,1002.85a1.716,1.716,0,0,1-1.061-2.184h0a1.717,1.717,0,0,1,2.185-1.061l27.468,9.513a1.717,1.717,0,0,1,1.061,2.184h0A1.717,1.717,0,0,1,196.868,1012.363Z" fill="#b3b9ed"/>
          <path id="Path_81" data-name="Path 81" d="M208.459,1012.743l-27.468-9.513a1.717,1.717,0,0,1-1.061-2.185h0a1.716,1.716,0,0,1,2.184-1.06l27.469,9.512a1.717,1.717,0,0,1,1.06,2.185h0A1.717,1.717,0,0,1,208.459,1012.743Z" fill="#b3b9ed"/>
          <path id="Path_82" data-name="Path 82" d="M195.842,1004.739l-27.469-9.513a1.719,1.719,0,0,1-1.061-2.185h0a1.719,1.719,0,0,1,2.185-1.061l27.469,9.513a1.717,1.717,0,0,1,1.06,2.185h0A1.717,1.717,0,0,1,195.842,1004.739Z" fill="#b3b9ed"/>
          <path id="Path_83" data-name="Path 83" d="M208.011,1005.319l-27.468-9.513a1.719,1.719,0,0,1-1.061-2.185h0a1.719,1.719,0,0,1,2.185-1.061l27.468,9.513a1.718,1.718,0,0,1,1.061,2.185h0A1.718,1.718,0,0,1,208.011,1005.319Z" fill="#b3b9ed"/>
          <path id="Path_84" data-name="Path 84" d="M204.141,1000.344l-27.469-9.513a1.717,1.717,0,0,1-1.06-2.185h0a1.717,1.717,0,0,1,2.184-1.061l27.469,9.513a1.717,1.717,0,0,1,1.06,2.185h0A1.717,1.717,0,0,1,204.141,1000.344Z" fill="#b3b9ed"/>
          <path id="Path_85" data-name="Path 85" d="M221.821,981.025l-27.468-9.513a1.717,1.717,0,0,1-1.06-2.185h0a1.717,1.717,0,0,1,2.184-1.061l27.468,9.513a1.718,1.718,0,0,1,1.061,2.185h0A1.718,1.718,0,0,1,221.821,981.025Z" fill="#b3b9ed"/>
          <path id="Path_86" data-name="Path 86" d="M187.19,1034.454l-25.086-8.688a1.717,1.717,0,0,1-1.06-2.185h0a1.716,1.716,0,0,1,2.184-1.06l25.086,8.687a1.718,1.718,0,0,1,1.061,2.185h0A1.719,1.719,0,0,1,187.19,1034.454Z" fill="#b3b9ed"/>
          <path id="Path_87" data-name="Path 87" d="M201.163,1035.658l-27.468-9.513a1.717,1.717,0,0,1-1.061-2.184h0a1.717,1.717,0,0,1,2.184-1.061l27.468,9.513a1.717,1.717,0,0,1,1.061,2.185h0A1.716,1.716,0,0,1,201.163,1035.658Z" fill="#b3b9ed"/>
          <path id="Path_88" data-name="Path 88" d="M188.546,1027.654l-27.468-9.513a1.717,1.717,0,0,1-1.061-2.184h0a1.717,1.717,0,0,1,2.185-1.061l27.468,9.513a1.717,1.717,0,0,1,1.061,2.184h0A1.717,1.717,0,0,1,188.546,1027.654Z" fill="#b3b9ed"/>
          <path id="Path_89" data-name="Path 89" d="M200.716,1028.234l-27.468-9.513a1.717,1.717,0,0,1-1.061-2.184h0a1.719,1.719,0,0,1,2.185-1.061l27.468,9.513a1.718,1.718,0,0,1,1.061,2.185h0A1.717,1.717,0,0,1,200.716,1028.234Z" fill="#b3b9ed"/>
          <path id="Path_90" data-name="Path 90" d="M196.845,1023.259l-27.468-9.513a1.717,1.717,0,0,1-1.061-2.184h0a1.717,1.717,0,0,1,2.185-1.061l27.468,9.513a1.717,1.717,0,0,1,1.061,2.184h0A1.716,1.716,0,0,1,196.845,1023.259Z" fill="#b3b9ed"/>
          <path id="Path_91" data-name="Path 91" d="M208.682,1023.724l-27.468-9.513a1.717,1.717,0,0,1-1.061-2.185h0a1.716,1.716,0,0,1,2.184-1.06l27.469,9.512a1.717,1.717,0,0,1,1.06,2.185h0A1.717,1.717,0,0,1,208.682,1023.724Z" fill="#b3b9ed"/>
        </g>
        <g id="Group_8" data-name="Group 8">
          <path id="Path_92" data-name="Path 92" d="M252.144,937.007l-27.468-9.513a1.716,1.716,0,0,1-1.061-2.184h0a1.718,1.718,0,0,1,2.185-1.061l27.468,9.513a1.716,1.716,0,0,1,1.06,2.185h0A1.716,1.716,0,0,1,252.144,937.007Z" fill="#5b9dff"/>
          <path id="Path_93" data-name="Path 93" d="M248.795,932.213,221.327,922.7a1.718,1.718,0,0,1-1.061-2.185h0a1.717,1.717,0,0,1,2.185-1.06l27.468,9.513a1.717,1.717,0,0,1,1.061,2.184h0A1.719,1.719,0,0,1,248.795,932.213Z" fill="#5b9dff"/>
          <path id="Path_94" data-name="Path 94" d="M260.386,932.593l-27.468-9.513a1.719,1.719,0,0,1-1.061-2.185h0a1.718,1.718,0,0,1,2.185-1.061l27.468,9.513a1.719,1.719,0,0,1,1.061,2.185h0A1.719,1.719,0,0,1,260.386,932.593Z" fill="#5b9dff"/>
          <path id="Path_95" data-name="Path 95" d="M247.769,924.588,220.3,915.075a1.716,1.716,0,0,1-1.061-2.184h0a1.718,1.718,0,0,1,2.185-1.061l27.468,9.513a1.716,1.716,0,0,1,1.06,2.185h0A1.716,1.716,0,0,1,247.769,924.588Z" fill="#5b9dff"/>
          <path id="Path_96" data-name="Path 96" d="M256.651,924.03l-24.181-8.374a1.717,1.717,0,0,1-1.06-2.185h0a1.717,1.717,0,0,1,2.184-1.061l24.181,8.374a1.719,1.719,0,0,1,1.061,2.185h0A1.719,1.719,0,0,1,256.651,924.03Z" fill="#5b9dff"/>
          <path id="Path_97" data-name="Path 97" d="M256.068,920.193,228.6,910.68a1.716,1.716,0,0,1-1.061-2.184h0a1.718,1.718,0,0,1,2.185-1.061l27.468,9.513a1.718,1.718,0,0,1,1.061,2.185h0A1.717,1.717,0,0,1,256.068,920.193Z" fill="#5b9dff"/>
          <path id="Path_98" data-name="Path 98" d="M267.9,920.658l-27.469-9.513a1.718,1.718,0,0,1-1.061-2.185h0a1.717,1.717,0,0,1,2.185-1.06l27.469,9.513a1.716,1.716,0,0,1,1.06,2.184h0A1.716,1.716,0,0,1,267.9,920.658Z" fill="#5b9dff"/>
          <path id="Path_99" data-name="Path 99" d="M244.276,959.725l-27.468-9.513a1.719,1.719,0,0,1-1.061-2.185h0a1.719,1.719,0,0,1,2.185-1.061l27.468,9.513a1.719,1.719,0,0,1,1.061,2.185h0A1.718,1.718,0,0,1,244.276,959.725Z" fill="#5b9dff"/>
          <path id="Path_100" data-name="Path 100" d="M240.928,954.93l-27.469-9.513a1.716,1.716,0,0,1-1.06-2.184h0a1.717,1.717,0,0,1,2.184-1.061l27.469,9.513a1.716,1.716,0,0,1,1.06,2.185h0A1.716,1.716,0,0,1,240.928,954.93Z" fill="#5b9dff"/>
          <path id="Path_101" data-name="Path 101" d="M252.519,955.31,225.05,945.8a1.716,1.716,0,0,1-1.06-2.185h0a1.716,1.716,0,0,1,2.184-1.06l27.469,9.513a1.716,1.716,0,0,1,1.06,2.184h0A1.717,1.717,0,0,1,252.519,955.31Z" fill="#5b9dff"/>
          <path id="Path_102" data-name="Path 102" d="M239.9,947.306l-27.468-9.513a1.719,1.719,0,0,1-1.061-2.185h0a1.719,1.719,0,0,1,2.185-1.061l27.468,9.513a1.719,1.719,0,0,1,1.061,2.185h0A1.719,1.719,0,0,1,239.9,947.306Z" fill="#5b9dff"/>
          <path id="Path_103" data-name="Path 103" d="M263.171,951.73l-25.08-8.686a1.718,1.718,0,0,1-1.061-2.185h0a1.717,1.717,0,0,1,2.185-1.06l25.08,8.686a1.717,1.717,0,0,1,1.061,2.184h0A1.719,1.719,0,0,1,263.171,951.73Z" fill="#5b9dff"/>
          <path id="Path_104" data-name="Path 104" d="M254.077,944.946,220.732,933.4a1.719,1.719,0,0,1-1.061-2.185h0a1.719,1.719,0,0,1,2.185-1.061L255.2,941.7a1.717,1.717,0,0,1,1.061,2.185h0A1.717,1.717,0,0,1,254.077,944.946Z" fill="#5b9dff"/>
          <path id="Path_105" data-name="Path 105" d="M260.037,943.375l-27.469-9.513a1.716,1.716,0,0,1-1.06-2.184h0a1.717,1.717,0,0,1,2.184-1.061l27.469,9.513a1.718,1.718,0,0,1,1.061,2.185h0A1.717,1.717,0,0,1,260.037,943.375Z" fill="#5b9dff"/>
          <path id="Path_106" data-name="Path 106" d="M236.409,982.442l-24.21-8.385a1.717,1.717,0,0,1-1.061-2.184h0a1.719,1.719,0,0,1,2.185-1.061l24.21,8.385a1.716,1.716,0,0,1,1.06,2.184h0A1.717,1.717,0,0,1,236.409,982.442Z" fill="#5b9dff"/>
          <path id="Path_107" data-name="Path 107" d="M233.06,977.648,209.236,969.4a1.718,1.718,0,0,1-1.061-2.185h0a1.717,1.717,0,0,1,2.184-1.061l23.825,8.251a1.719,1.719,0,0,1,1.061,2.185h0A1.719,1.719,0,0,1,233.06,977.648Z" fill="#5b9dff"/>
          <path id="Path_108" data-name="Path 108" d="M244.651,978.027l-27.468-9.513a1.716,1.716,0,0,1-1.061-2.184h0a1.718,1.718,0,0,1,2.185-1.061l27.468,9.513a1.718,1.718,0,0,1,1.061,2.185h0A1.717,1.717,0,0,1,244.651,978.027Z" fill="#5b9dff"/>
          <path id="Path_109" data-name="Path 109" d="M232.034,970.023l-27.469-9.513a1.716,1.716,0,0,1-1.06-2.184h0a1.715,1.715,0,0,1,2.184-1.061l27.469,9.513a1.716,1.716,0,0,1,1.06,2.184h0A1.717,1.717,0,0,1,232.034,970.023Z" fill="#5b9dff"/>
          <path id="Path_110" data-name="Path 110" d="M244.2,970.6l-27.469-9.513a1.716,1.716,0,0,1-1.06-2.184h0a1.716,1.716,0,0,1,2.184-1.061l27.469,9.513a1.716,1.716,0,0,1,1.06,2.184h0A1.715,1.715,0,0,1,244.2,970.6Z" fill="#5b9dff"/>
          <path id="Path_111" data-name="Path 111" d="M240.333,965.628l-27.468-9.513a1.716,1.716,0,0,1-1.061-2.185h0a1.716,1.716,0,0,1,2.184-1.06l27.469,9.513a1.716,1.716,0,0,1,1.06,2.184h0A1.716,1.716,0,0,1,240.333,965.628Z" fill="#5b9dff"/>
          <path id="Path_112" data-name="Path 112" d="M252.169,966.093,224.7,956.58a1.719,1.719,0,0,1-1.061-2.185h0a1.719,1.719,0,0,1,2.185-1.061l27.468,9.513a1.718,1.718,0,0,1,1.061,2.185h0A1.718,1.718,0,0,1,252.169,966.093Z" fill="#5b9dff"/>
          <path id="Path_113" data-name="Path 113" d="M228.541,1005.159l-27.468-9.513a1.717,1.717,0,0,1-1.061-2.184h0A1.719,1.719,0,0,1,202.2,992.4l27.468,9.513a1.718,1.718,0,0,1,1.061,2.185h0A1.717,1.717,0,0,1,228.541,1005.159Z" fill="#5b9dff"/>
          <path id="Path_114" data-name="Path 114" d="M222.81,999.54l-25.086-8.688a1.716,1.716,0,0,1-1.06-2.184h0a1.715,1.715,0,0,1,2.184-1.061l25.086,8.688a1.717,1.717,0,0,1,1.061,2.184h0A1.719,1.719,0,0,1,222.81,999.54Z" fill="#5b9dff"/>
          <path id="Path_115" data-name="Path 115" d="M236.783,1000.745l-27.468-9.513a1.719,1.719,0,0,1-1.061-2.185h0a1.719,1.719,0,0,1,2.185-1.061l27.468,9.513a1.717,1.717,0,0,1,1.061,2.185h0A1.718,1.718,0,0,1,236.783,1000.745Z" fill="#5b9dff"/>
          <path id="Path_116" data-name="Path 116" d="M224.166,992.74,196.7,983.228a1.719,1.719,0,0,1-1.061-2.185h0a1.719,1.719,0,0,1,2.185-1.061l27.468,9.513a1.718,1.718,0,0,1,1.061,2.185h0A1.717,1.717,0,0,1,224.166,992.74Z" fill="#5b9dff"/>
          <path id="Path_117" data-name="Path 117" d="M236.336,993.321l-27.468-9.513a1.719,1.719,0,0,1-1.061-2.185h0a1.718,1.718,0,0,1,2.185-1.061l27.468,9.513a1.719,1.719,0,0,1,1.061,2.185h0A1.719,1.719,0,0,1,236.336,993.321Z" fill="#5b9dff"/>
          <path id="Path_118" data-name="Path 118" d="M232.465,988.345,205,978.833a1.719,1.719,0,0,1-1.061-2.185h0a1.719,1.719,0,0,1,2.185-1.061l27.468,9.513a1.718,1.718,0,0,1,1.061,2.185h0A1.717,1.717,0,0,1,232.465,988.345Z" fill="#5b9dff"/>
          <path id="Path_119" data-name="Path 119" d="M222.7,1024.943l-27.468-9.513a1.716,1.716,0,0,1-1.061-2.185h0a1.716,1.716,0,0,1,2.184-1.06l27.469,9.513a1.716,1.716,0,0,1,1.06,2.184h0A1.717,1.717,0,0,1,222.7,1024.943Z" fill="#5b9dff"/>
          <path id="Path_120" data-name="Path 120" d="M219.348,1020.149l-27.468-9.513a1.719,1.719,0,0,1-1.061-2.185h0A1.719,1.719,0,0,1,193,1007.39l27.468,9.513a1.719,1.719,0,0,1,1.061,2.185h0A1.719,1.719,0,0,1,219.348,1020.149Z" fill="#5b9dff"/>
          <path id="Path_121" data-name="Path 121" d="M230.939,1020.528l-27.468-9.513a1.716,1.716,0,0,1-1.061-2.184h0a1.717,1.717,0,0,1,2.185-1.061l27.468,9.513a1.718,1.718,0,0,1,1.061,2.185h0A1.717,1.717,0,0,1,230.939,1020.528Z" fill="#5b9dff"/>
          <path id="Path_122" data-name="Path 122" d="M218.322,1012.524l-27.469-9.513a1.716,1.716,0,0,1-1.06-2.185h0a1.716,1.716,0,0,1,2.184-1.06l27.469,9.513a1.716,1.716,0,0,1,1.06,2.184h0A1.717,1.717,0,0,1,218.322,1012.524Z" fill="#5b9dff"/>
          <path id="Path_123" data-name="Path 123" d="M230.492,1013.1l-27.469-9.513a1.716,1.716,0,0,1-1.06-2.184h0a1.715,1.715,0,0,1,2.184-1.061l27.469,9.513a1.716,1.716,0,0,1,1.06,2.184h0A1.716,1.716,0,0,1,230.492,1013.1Z" fill="#5b9dff"/>
          <path id="Path_124" data-name="Path 124" d="M226.621,1008.129l-27.468-9.513a1.716,1.716,0,0,1-1.061-2.185h0a1.716,1.716,0,0,1,2.184-1.06l27.469,9.513a1.716,1.716,0,0,1,1.06,2.184h0A1.717,1.717,0,0,1,226.621,1008.129Z" fill="#5b9dff"/>
          <path id="Path_125" data-name="Path 125" d="M244.3,988.81,216.833,979.3a1.716,1.716,0,0,1-1.06-2.185h0a1.716,1.716,0,0,1,2.184-1.06l27.469,9.513a1.716,1.716,0,0,1,1.06,2.184h0A1.716,1.716,0,0,1,244.3,988.81Z" fill="#5b9dff"/>
          <path id="Path_126" data-name="Path 126" d="M209.67,1042.239l-25.085-8.688a1.716,1.716,0,0,1-1.061-2.184h0a1.715,1.715,0,0,1,2.184-1.061l25.086,8.688a1.717,1.717,0,0,1,1.061,2.184h0A1.719,1.719,0,0,1,209.67,1042.239Z" fill="#5b9dff"/>
          <path id="Path_127" data-name="Path 127" d="M223.644,1043.444l-27.469-9.513a1.717,1.717,0,0,1-1.06-2.185h0a1.717,1.717,0,0,1,2.184-1.061l27.469,9.513a1.717,1.717,0,0,1,1.06,2.185h0A1.717,1.717,0,0,1,223.644,1043.444Z" fill="#5b9dff"/>
          <path id="Path_128" data-name="Path 128" d="M211.026,1035.439l-27.468-9.512a1.719,1.719,0,0,1-1.061-2.185h0a1.718,1.718,0,0,1,2.185-1.061l27.468,9.513a1.719,1.719,0,0,1,1.061,2.185h0A1.716,1.716,0,0,1,211.026,1035.439Z" fill="#5b9dff"/>
          <path id="Path_129" data-name="Path 129" d="M223.2,1036.02l-27.468-9.513a1.718,1.718,0,0,1-1.061-2.185h0a1.719,1.719,0,0,1,2.185-1.061l27.468,9.513a1.718,1.718,0,0,1,1.061,2.185h0A1.718,1.718,0,0,1,223.2,1036.02Z" fill="#5b9dff"/>
          <path id="Path_130" data-name="Path 130" d="M219.325,1031.045l-27.468-9.513a1.717,1.717,0,0,1-1.06-2.185h0a1.717,1.717,0,0,1,2.184-1.061l27.468,9.513a1.717,1.717,0,0,1,1.061,2.185h0A1.718,1.718,0,0,1,219.325,1031.045Z" fill="#5b9dff"/>
          <path id="Path_131" data-name="Path 131" d="M231.162,1031.509,203.694,1022a1.715,1.715,0,0,1-1.061-2.184h0a1.716,1.716,0,0,1,2.184-1.061l27.469,9.513a1.717,1.717,0,0,1,1.061,2.184h0A1.717,1.717,0,0,1,231.162,1031.509Z" fill="#5b9dff"/>
        </g>
        <g id="Group_9" data-name="Group 9">
          <path id="Path_132" data-name="Path 132" d="M268.984,942.839l-27.469-9.513a1.716,1.716,0,0,1-1.06-2.184h0a1.716,1.716,0,0,1,2.184-1.061l27.469,9.513a1.718,1.718,0,0,1,1.061,2.185h0A1.717,1.717,0,0,1,268.984,942.839Z" fill="#a0c2ff"/>
          <path id="Path_133" data-name="Path 133" d="M265.635,938.045l-27.468-9.513a1.717,1.717,0,0,1-1.061-2.185h0a1.716,1.716,0,0,1,2.185-1.06l27.468,9.513a1.717,1.717,0,0,1,1.061,2.184h0A1.719,1.719,0,0,1,265.635,938.045Z" fill="#a0c2ff"/>
          <path id="Path_134" data-name="Path 134" d="M277.226,938.425l-27.469-9.513a1.717,1.717,0,0,1-1.06-2.185h0a1.717,1.717,0,0,1,2.184-1.061l27.469,9.513a1.719,1.719,0,0,1,1.061,2.185h0A1.719,1.719,0,0,1,277.226,938.425Z" fill="#a0c2ff"/>
          <path id="Path_135" data-name="Path 135" d="M264.609,930.42l-27.469-9.513a1.717,1.717,0,0,1-1.061-2.184h0a1.719,1.719,0,0,1,2.185-1.061l27.469,9.513a1.717,1.717,0,0,1,1.06,2.185h0A1.716,1.716,0,0,1,264.609,930.42Z" fill="#a0c2ff"/>
          <path id="Path_136" data-name="Path 136" d="M273.491,929.862l-24.181-8.375a1.717,1.717,0,0,1-1.061-2.184h0a1.719,1.719,0,0,1,2.185-1.061l24.181,8.375a1.717,1.717,0,0,1,1.061,2.184h0A1.719,1.719,0,0,1,273.491,929.862Z" fill="#a0c2ff"/>
          <path id="Path_137" data-name="Path 137" d="M272.908,926.025l-27.469-9.513a1.716,1.716,0,0,1-1.06-2.184h0a1.717,1.717,0,0,1,2.184-1.061l27.469,9.513a1.718,1.718,0,0,1,1.061,2.185h0A1.717,1.717,0,0,1,272.908,926.025Z" fill="#a0c2ff"/>
          <path id="Path_138" data-name="Path 138" d="M284.745,926.49l-27.469-9.513a1.718,1.718,0,0,1-1.061-2.185h0a1.717,1.717,0,0,1,2.185-1.06l27.468,9.513a1.715,1.715,0,0,1,1.061,2.184h0A1.716,1.716,0,0,1,284.745,926.49Z" fill="#a0c2ff"/>
          <path id="Path_139" data-name="Path 139" d="M261.116,965.557l-27.468-9.513a1.718,1.718,0,0,1-1.061-2.185h0a1.718,1.718,0,0,1,2.185-1.061l27.468,9.513A1.717,1.717,0,0,1,263.3,964.5h0A1.718,1.718,0,0,1,261.116,965.557Z" fill="#a0c2ff"/>
          <path id="Path_140" data-name="Path 140" d="M257.768,960.762,230.3,951.249a1.717,1.717,0,0,1-1.061-2.184h0A1.718,1.718,0,0,1,231.423,948l27.469,9.513a1.717,1.717,0,0,1,1.06,2.185h0A1.716,1.716,0,0,1,257.768,960.762Z" fill="#a0c2ff"/>
          <path id="Path_141" data-name="Path 141" d="M269.359,961.142l-27.469-9.513a1.718,1.718,0,0,1-1.061-2.185h0a1.717,1.717,0,0,1,2.185-1.06l27.469,9.513a1.716,1.716,0,0,1,1.06,2.184h0A1.716,1.716,0,0,1,269.359,961.142Z" fill="#a0c2ff"/>
          <path id="Path_142" data-name="Path 142" d="M256.741,953.138l-27.468-9.513a1.719,1.719,0,0,1-1.061-2.185h0a1.718,1.718,0,0,1,2.185-1.061l27.468,9.513a1.719,1.719,0,0,1,1.061,2.185h0A1.719,1.719,0,0,1,256.741,953.138Z" fill="#a0c2ff"/>
          <path id="Path_143" data-name="Path 143" d="M280.011,957.562l-25.08-8.686a1.717,1.717,0,0,1-1.061-2.184h0a1.716,1.716,0,0,1,2.185-1.061l25.08,8.686a1.716,1.716,0,0,1,1.06,2.184h0A1.717,1.717,0,0,1,280.011,957.562Z" fill="#a0c2ff"/>
          <path id="Path_144" data-name="Path 144" d="M270.917,950.778,237.572,939.23a1.719,1.719,0,0,1-1.061-2.185h0a1.718,1.718,0,0,1,2.185-1.061l33.345,11.549a1.716,1.716,0,0,1,1.06,2.184h0A1.717,1.717,0,0,1,270.917,950.778Z" fill="#a0c2ff"/>
          <path id="Path_145" data-name="Path 145" d="M276.877,949.207l-27.469-9.513a1.717,1.717,0,0,1-1.061-2.184h0a1.719,1.719,0,0,1,2.185-1.061L278,945.962a1.717,1.717,0,0,1,1.06,2.185h0A1.716,1.716,0,0,1,276.877,949.207Z" fill="#a0c2ff"/>
          <path id="Path_146" data-name="Path 146" d="M253.249,988.274l-24.211-8.385a1.716,1.716,0,0,1-1.06-2.184h0a1.717,1.717,0,0,1,2.184-1.061l24.211,8.385a1.716,1.716,0,0,1,1.06,2.184h0A1.716,1.716,0,0,1,253.249,988.274Z" fill="#a0c2ff"/>
          <path id="Path_147" data-name="Path 147" d="M249.9,983.48l-23.825-8.251a1.719,1.719,0,0,1-1.061-2.185h0a1.719,1.719,0,0,1,2.185-1.061l23.825,8.251a1.719,1.719,0,0,1,1.061,2.185h0A1.719,1.719,0,0,1,249.9,983.48Z" fill="#a0c2ff"/>
          <path id="Path_148" data-name="Path 148" d="M261.491,983.859l-27.469-9.513a1.716,1.716,0,0,1-1.06-2.184h0a1.717,1.717,0,0,1,2.184-1.061l27.469,9.513a1.718,1.718,0,0,1,1.061,2.185h0A1.717,1.717,0,0,1,261.491,983.859Z" fill="#a0c2ff"/>
          <path id="Path_149" data-name="Path 149" d="M248.874,975.855,221.4,966.342a1.718,1.718,0,0,1-1.061-2.185h0a1.717,1.717,0,0,1,2.185-1.06L250,972.61a1.715,1.715,0,0,1,1.061,2.184h0A1.716,1.716,0,0,1,248.874,975.855Z" fill="#a0c2ff"/>
          <path id="Path_150" data-name="Path 150" d="M261.044,976.435l-27.469-9.513a1.717,1.717,0,0,1-1.061-2.184h0a1.718,1.718,0,0,1,2.185-1.061l27.469,9.513a1.716,1.716,0,0,1,1.06,2.185h0A1.716,1.716,0,0,1,261.044,976.435Z" fill="#a0c2ff"/>
          <path id="Path_151" data-name="Path 151" d="M257.173,971.46,229.7,961.947a1.718,1.718,0,0,1-1.061-2.185h0a1.717,1.717,0,0,1,2.185-1.06l27.469,9.513a1.717,1.717,0,0,1,1.061,2.184h0A1.717,1.717,0,0,1,257.173,971.46Z" fill="#a0c2ff"/>
          <path id="Path_152" data-name="Path 152" d="M269.009,971.925l-27.468-9.513a1.717,1.717,0,0,1-1.061-2.185h0a1.718,1.718,0,0,1,2.185-1.061l27.468,9.514a1.716,1.716,0,0,1,1.061,2.184h0A1.718,1.718,0,0,1,269.009,971.925Z" fill="#a0c2ff"/>
          <path id="Path_153" data-name="Path 153" d="M245.381,1010.992l-27.468-9.514a1.715,1.715,0,0,1-1.061-2.184h0a1.717,1.717,0,0,1,2.184-1.061l27.469,9.513a1.719,1.719,0,0,1,1.061,2.185h0A1.718,1.718,0,0,1,245.381,1010.992Z" fill="#a0c2ff"/>
          <path id="Path_154" data-name="Path 154" d="M239.65,1005.372l-25.086-8.688A1.717,1.717,0,0,1,213.5,994.5h0a1.717,1.717,0,0,1,2.185-1.061l25.086,8.688a1.717,1.717,0,0,1,1.061,2.184h0A1.718,1.718,0,0,1,239.65,1005.372Z" fill="#a0c2ff"/>
          <path id="Path_155" data-name="Path 155" d="M253.624,1006.577l-27.469-9.513a1.719,1.719,0,0,1-1.061-2.185h0a1.718,1.718,0,0,1,2.185-1.061l27.468,9.513a1.717,1.717,0,0,1,1.061,2.185h0A1.717,1.717,0,0,1,253.624,1006.577Z" fill="#a0c2ff"/>
          <path id="Path_156" data-name="Path 156" d="M241.006,998.572l-27.468-9.512a1.717,1.717,0,0,1-1.061-2.185h0a1.717,1.717,0,0,1,2.184-1.061l27.469,9.513a1.719,1.719,0,0,1,1.061,2.185h0A1.717,1.717,0,0,1,241.006,998.572Z" fill="#a0c2ff"/>
          <path id="Path_157" data-name="Path 157" d="M253.176,999.153l-27.469-9.513a1.717,1.717,0,0,1-1.06-2.185h0a1.717,1.717,0,0,1,2.184-1.061l27.469,9.513a1.719,1.719,0,0,1,1.061,2.185h0A1.719,1.719,0,0,1,253.176,999.153Z" fill="#a0c2ff"/>
          <path id="Path_158" data-name="Path 158" d="M249.3,994.177l-27.468-9.513a1.716,1.716,0,0,1-1.061-2.184h0a1.718,1.718,0,0,1,2.185-1.061l27.468,9.513a1.719,1.719,0,0,1,1.061,2.185h0A1.717,1.717,0,0,1,249.3,994.177Z" fill="#a0c2ff"/>
          <path id="Path_159" data-name="Path 159" d="M239.537,1030.775l-27.469-9.513a1.718,1.718,0,0,1-1.061-2.185h0a1.717,1.717,0,0,1,2.185-1.06l27.469,9.513a1.716,1.716,0,0,1,1.06,2.184h0A1.717,1.717,0,0,1,239.537,1030.775Z" fill="#a0c2ff"/>
          <path id="Path_160" data-name="Path 160" d="M236.188,1025.981l-27.469-9.513a1.717,1.717,0,0,1-1.06-2.185h0a1.717,1.717,0,0,1,2.184-1.061l27.469,9.513a1.719,1.719,0,0,1,1.061,2.185h0A1.718,1.718,0,0,1,236.188,1025.981Z" fill="#a0c2ff"/>
          <path id="Path_161" data-name="Path 161" d="M247.779,1026.36l-27.469-9.513a1.716,1.716,0,0,1-1.06-2.184h0a1.716,1.716,0,0,1,2.184-1.061l27.469,9.513a1.718,1.718,0,0,1,1.061,2.185h0A1.717,1.717,0,0,1,247.779,1026.36Z" fill="#a0c2ff"/>
          <path id="Path_162" data-name="Path 162" d="M235.162,1018.356l-27.469-9.513a1.718,1.718,0,0,1-1.061-2.185h0a1.717,1.717,0,0,1,2.185-1.06l27.468,9.513a1.715,1.715,0,0,1,1.061,2.184h0A1.717,1.717,0,0,1,235.162,1018.356Z" fill="#a0c2ff"/>
          <path id="Path_163" data-name="Path 163" d="M247.332,1018.936l-27.469-9.513a1.717,1.717,0,0,1-1.061-2.184h0a1.717,1.717,0,0,1,2.185-1.061l27.469,9.513a1.716,1.716,0,0,1,1.06,2.185h0A1.716,1.716,0,0,1,247.332,1018.936Z" fill="#a0c2ff"/>
          <path id="Path_164" data-name="Path 164" d="M243.461,1013.961l-27.469-9.513a1.718,1.718,0,0,1-1.061-2.185h0a1.717,1.717,0,0,1,2.185-1.06l27.469,9.513a1.717,1.717,0,0,1,1.061,2.184h0A1.718,1.718,0,0,1,243.461,1013.961Z" fill="#a0c2ff"/>
          <path id="Path_165" data-name="Path 165" d="M261.142,994.642l-27.469-9.513a1.718,1.718,0,0,1-1.061-2.185h0a1.717,1.717,0,0,1,2.185-1.06l27.469,9.513a1.716,1.716,0,0,1,1.06,2.184h0A1.715,1.715,0,0,1,261.142,994.642Z" fill="#a0c2ff"/>
          <path id="Path_166" data-name="Path 166" d="M226.51,1048.071l-25.086-8.688a1.717,1.717,0,0,1-1.061-2.184h0a1.718,1.718,0,0,1,2.185-1.061l25.086,8.688a1.717,1.717,0,0,1,1.061,2.184h0A1.719,1.719,0,0,1,226.51,1048.071Z" fill="#a0c2ff"/>
          <path id="Path_167" data-name="Path 167" d="M240.484,1049.276l-27.469-9.513a1.718,1.718,0,0,1-1.061-2.185h0a1.719,1.719,0,0,1,2.185-1.061l27.469,9.514a1.716,1.716,0,0,1,1.06,2.184h0A1.717,1.717,0,0,1,240.484,1049.276Z" fill="#a0c2ff"/>
          <path id="Path_168" data-name="Path 168" d="M227.866,1041.271l-27.468-9.512a1.719,1.719,0,0,1-1.061-2.185h0a1.718,1.718,0,0,1,2.185-1.061l27.468,9.513a1.719,1.719,0,0,1,1.061,2.185h0A1.716,1.716,0,0,1,227.866,1041.271Z" fill="#a0c2ff"/>
          <path id="Path_169" data-name="Path 169" d="M240.036,1041.852l-27.468-9.513a1.718,1.718,0,0,1-1.061-2.185h0a1.718,1.718,0,0,1,2.185-1.061l27.468,9.513a1.719,1.719,0,0,1,1.061,2.185h0A1.718,1.718,0,0,1,240.036,1041.852Z" fill="#a0c2ff"/>
          <path id="Path_170" data-name="Path 170" d="M236.165,1036.877l-27.468-9.513a1.719,1.719,0,0,1-1.061-2.185h0a1.718,1.718,0,0,1,2.185-1.061l27.468,9.513a1.717,1.717,0,0,1,1.061,2.185h0A1.718,1.718,0,0,1,236.165,1036.877Z" fill="#a0c2ff"/>
          <path id="Path_171" data-name="Path 171" d="M248,1037.341l-27.469-9.513a1.716,1.716,0,0,1-1.06-2.184h0a1.715,1.715,0,0,1,2.184-1.061l27.469,9.513a1.718,1.718,0,0,1,1.061,2.185h0A1.717,1.717,0,0,1,248,1037.341Z" fill="#a0c2ff"/>
        </g>
        <g id="Group_10" data-name="Group 10">
          <path id="Path_172" data-name="Path 172" d="M287.677,949.313,260.208,939.8a1.718,1.718,0,0,1-1.061-2.185h0a1.717,1.717,0,0,1,2.185-1.06l27.468,9.513a1.715,1.715,0,0,1,1.061,2.184h0A1.717,1.717,0,0,1,287.677,949.313Z" fill="#5579b5"/>
          <path id="Path_173" data-name="Path 173" d="M284.328,944.519l-27.469-9.513a1.717,1.717,0,0,1-1.06-2.185h0a1.717,1.717,0,0,1,2.184-1.061l27.469,9.513a1.719,1.719,0,0,1,1.061,2.185h0A1.719,1.719,0,0,1,284.328,944.519Z" fill="#5579b5"/>
          <path id="Path_174" data-name="Path 174" d="M295.919,944.9l-27.469-9.513a1.716,1.716,0,0,1-1.06-2.184h0a1.717,1.717,0,0,1,2.184-1.061l27.469,9.513a1.716,1.716,0,0,1,1.06,2.185h0A1.716,1.716,0,0,1,295.919,944.9Z" fill="#5579b5"/>
          <path id="Path_175" data-name="Path 175" d="M283.3,936.894l-27.469-9.513a1.718,1.718,0,0,1-1.061-2.185h0a1.717,1.717,0,0,1,2.185-1.06l27.468,9.513a1.715,1.715,0,0,1,1.061,2.184h0A1.716,1.716,0,0,1,283.3,936.894Z" fill="#5579b5"/>
          <path id="Path_176" data-name="Path 176" d="M292.184,936.336,268,927.961a1.717,1.717,0,0,1-1.061-2.184h0a1.718,1.718,0,0,1,2.185-1.061l24.181,8.374a1.717,1.717,0,0,1,1.06,2.185h0A1.717,1.717,0,0,1,292.184,936.336Z" fill="#5579b5"/>
          <path id="Path_177" data-name="Path 177" d="M291.6,932.5l-27.469-9.513a1.718,1.718,0,0,1-1.061-2.185h0a1.717,1.717,0,0,1,2.185-1.06l27.469,9.513a1.716,1.716,0,0,1,1.06,2.184h0A1.715,1.715,0,0,1,291.6,932.5Z" fill="#5579b5"/>
          <path id="Path_178" data-name="Path 178" d="M303.437,932.964l-27.468-9.513a1.718,1.718,0,0,1-1.061-2.185h0a1.717,1.717,0,0,1,2.185-1.06l27.468,9.512a1.719,1.719,0,0,1,1.061,2.185h0A1.719,1.719,0,0,1,303.437,932.964Z" fill="#5579b5"/>
          <path id="Path_179" data-name="Path 179" d="M279.809,972.03l-27.469-9.513a1.716,1.716,0,0,1-1.06-2.184h0a1.717,1.717,0,0,1,2.184-1.061l27.469,9.513a1.718,1.718,0,0,1,1.061,2.185h0A1.717,1.717,0,0,1,279.809,972.03Z" fill="#5579b5"/>
          <path id="Path_180" data-name="Path 180" d="M276.461,967.236l-27.469-9.513a1.718,1.718,0,0,1-1.061-2.185h0a1.717,1.717,0,0,1,2.185-1.06l27.468,9.513a1.716,1.716,0,0,1,1.061,2.184h0A1.715,1.715,0,0,1,276.461,967.236Z" fill="#5579b5"/>
          <path id="Path_181" data-name="Path 181" d="M288.051,967.616,260.583,958.1a1.719,1.719,0,0,1-1.061-2.185h0a1.718,1.718,0,0,1,2.185-1.061l27.468,9.513a1.719,1.719,0,0,1,1.061,2.185h0A1.719,1.719,0,0,1,288.051,967.616Z" fill="#5579b5"/>
          <path id="Path_182" data-name="Path 182" d="M275.434,959.612,247.965,950.1a1.716,1.716,0,0,1-1.06-2.184h0a1.717,1.717,0,0,1,2.184-1.061l27.469,9.513a1.719,1.719,0,0,1,1.061,2.185h0A1.719,1.719,0,0,1,275.434,959.612Z" fill="#5579b5"/>
          <path id="Path_183" data-name="Path 183" d="M298.7,964.036l-25.079-8.686a1.718,1.718,0,0,1-1.061-2.185h0a1.716,1.716,0,0,1,2.185-1.06l25.079,8.685a1.718,1.718,0,0,1,1.061,2.185h0A1.718,1.718,0,0,1,298.7,964.036Z" fill="#5579b5"/>
          <path id="Path_184" data-name="Path 184" d="M289.609,957.252,256.264,945.7a1.716,1.716,0,0,1-1.06-2.184h0a1.717,1.717,0,0,1,2.184-1.061l33.345,11.548a1.719,1.719,0,0,1,1.061,2.185h0A1.719,1.719,0,0,1,289.609,957.252Z" fill="#5579b5"/>
          <path id="Path_185" data-name="Path 185" d="M295.569,955.681,268.1,946.168a1.717,1.717,0,0,1-1.061-2.184h0a1.717,1.717,0,0,1,2.185-1.061l27.468,9.513a1.717,1.717,0,0,1,1.061,2.184h0A1.717,1.717,0,0,1,295.569,955.681Z" fill="#5579b5"/>
          <path id="Path_186" data-name="Path 186" d="M271.941,994.748l-24.21-8.385a1.716,1.716,0,0,1-1.06-2.184h0a1.715,1.715,0,0,1,2.184-1.061l24.21,8.384a1.719,1.719,0,0,1,1.061,2.185h0A1.718,1.718,0,0,1,271.941,994.748Z" fill="#5579b5"/>
          <path id="Path_187" data-name="Path 187" d="M268.593,989.953,244.768,981.7a1.717,1.717,0,0,1-1.061-2.184h0a1.719,1.719,0,0,1,2.185-1.061l23.825,8.251a1.717,1.717,0,0,1,1.06,2.185h0A1.716,1.716,0,0,1,268.593,989.953Z" fill="#5579b5"/>
          <path id="Path_188" data-name="Path 188" d="M280.184,990.333l-27.469-9.513a1.718,1.718,0,0,1-1.061-2.185h0a1.717,1.717,0,0,1,2.185-1.06l27.468,9.513a1.715,1.715,0,0,1,1.061,2.184h0A1.716,1.716,0,0,1,280.184,990.333Z" fill="#5579b5"/>
          <path id="Path_189" data-name="Path 189" d="M267.566,982.329,240.1,972.816a1.718,1.718,0,0,1-1.061-2.185h0a1.718,1.718,0,0,1,2.185-1.061l27.468,9.513a1.718,1.718,0,0,1,1.061,2.185h0A1.718,1.718,0,0,1,267.566,982.329Z" fill="#5579b5"/>
          <path id="Path_190" data-name="Path 190" d="M279.736,982.909,252.268,973.4a1.718,1.718,0,0,1-1.061-2.185h0a1.717,1.717,0,0,1,2.185-1.06l27.468,9.513a1.717,1.717,0,0,1,1.061,2.184h0A1.718,1.718,0,0,1,279.736,982.909Z" fill="#5579b5"/>
          <path id="Path_191" data-name="Path 191" d="M275.865,977.934,248.4,968.421a1.719,1.719,0,0,1-1.061-2.185h0a1.717,1.717,0,0,1,2.185-1.06q13.734,4.755,27.468,9.513a1.716,1.716,0,0,1,1.061,2.184h0A1.718,1.718,0,0,1,275.865,977.934Z" fill="#5579b5"/>
          <path id="Path_192" data-name="Path 192" d="M287.7,978.4l-27.468-9.512a1.718,1.718,0,0,1-1.061-2.185h0a1.718,1.718,0,0,1,2.185-1.061l27.468,9.513a1.719,1.719,0,0,1,1.061,2.185h0A1.717,1.717,0,0,1,287.7,978.4Z" fill="#5579b5"/>
          <path id="Path_193" data-name="Path 193" d="M264.074,1017.465l-27.469-9.513a1.716,1.716,0,0,1-1.06-2.184h0a1.715,1.715,0,0,1,2.184-1.061l27.469,9.513a1.718,1.718,0,0,1,1.061,2.185h0A1.717,1.717,0,0,1,264.074,1017.465Z" fill="#5579b5"/>
          <path id="Path_194" data-name="Path 194" d="M258.343,1011.846l-25.086-8.688a1.717,1.717,0,0,1-1.061-2.185h0a1.716,1.716,0,0,1,2.185-1.06l25.086,8.687a1.717,1.717,0,0,1,1.06,2.185h0A1.717,1.717,0,0,1,258.343,1011.846Z" fill="#5579b5"/>
          <path id="Path_195" data-name="Path 195" d="M272.316,1013.05l-27.468-9.512a1.718,1.718,0,0,1-1.061-2.185h0a1.718,1.718,0,0,1,2.185-1.061l27.468,9.513a1.718,1.718,0,0,1,1.061,2.185h0A1.717,1.717,0,0,1,272.316,1013.05Z" fill="#5579b5"/>
          <path id="Path_196" data-name="Path 196" d="M259.7,1005.046l-27.469-9.513a1.717,1.717,0,0,1-1.061-2.184h0a1.717,1.717,0,0,1,2.185-1.061l27.469,9.513a1.718,1.718,0,0,1,1.061,2.185h0A1.717,1.717,0,0,1,259.7,1005.046Z" fill="#5579b5"/>
          <path id="Path_197" data-name="Path 197" d="M271.869,1005.626,244.4,996.113a1.716,1.716,0,0,1-1.06-2.184h0a1.717,1.717,0,0,1,2.184-1.061l27.469,9.513a1.716,1.716,0,0,1,1.06,2.185h0A1.716,1.716,0,0,1,271.869,1005.626Z" fill="#5579b5"/>
          <path id="Path_198" data-name="Path 198" d="M268,1000.651l-27.469-9.513a1.716,1.716,0,0,1-1.06-2.184h0a1.715,1.715,0,0,1,2.184-1.061l27.469,9.513a1.716,1.716,0,0,1,1.06,2.185h0A1.716,1.716,0,0,1,268,1000.651Z" fill="#5579b5"/>
          <path id="Path_199" data-name="Path 199" d="M258.229,1037.249l-27.468-9.513a1.718,1.718,0,0,1-1.061-2.185h0a1.718,1.718,0,0,1,2.185-1.061L259.353,1034a1.718,1.718,0,0,1,1.061,2.185h0A1.718,1.718,0,0,1,258.229,1037.249Z" fill="#5579b5"/>
          <path id="Path_200" data-name="Path 200" d="M254.881,1032.454l-27.469-9.513a1.717,1.717,0,0,1-1.061-2.184h0a1.719,1.719,0,0,1,2.185-1.061l27.469,9.513a1.717,1.717,0,0,1,1.06,2.185h0A1.716,1.716,0,0,1,254.881,1032.454Z" fill="#5579b5"/>
          <path id="Path_201" data-name="Path 201" d="M266.471,1032.834,239,1023.321a1.718,1.718,0,0,1-1.061-2.185h0a1.717,1.717,0,0,1,2.185-1.06l27.468,9.513a1.716,1.716,0,0,1,1.061,2.184h0A1.718,1.718,0,0,1,266.471,1032.834Z" fill="#5579b5"/>
          <path id="Path_202" data-name="Path 202" d="M253.854,1024.83l-27.468-9.513a1.718,1.718,0,0,1-1.061-2.185h0a1.718,1.718,0,0,1,2.185-1.061l27.468,9.513a1.718,1.718,0,0,1,1.061,2.185h0A1.718,1.718,0,0,1,253.854,1024.83Z" fill="#5579b5"/>
          <path id="Path_203" data-name="Path 203" d="M266.024,1025.41l-27.468-9.513a1.718,1.718,0,0,1-1.061-2.185h0a1.717,1.717,0,0,1,2.185-1.06l27.468,9.513a1.717,1.717,0,0,1,1.061,2.184h0A1.718,1.718,0,0,1,266.024,1025.41Z" fill="#5579b5"/>
          <path id="Path_204" data-name="Path 204" d="M262.154,1020.435l-27.469-9.513a1.719,1.719,0,0,1-1.061-2.185h0a1.719,1.719,0,0,1,2.185-1.061l27.468,9.513a1.717,1.717,0,0,1,1.061,2.185h0A1.717,1.717,0,0,1,262.154,1020.435Z" fill="#5579b5"/>
          <path id="Path_205" data-name="Path 205" d="M279.834,1001.116,252.366,991.6a1.718,1.718,0,0,1-1.061-2.185h0a1.717,1.717,0,0,1,2.185-1.06l27.468,9.512a1.719,1.719,0,0,1,1.061,2.185h0A1.719,1.719,0,0,1,279.834,1001.116Z" fill="#5579b5"/>
          <path id="Path_206" data-name="Path 206" d="M245.2,1054.545l-25.086-8.688a1.718,1.718,0,0,1-1.061-2.185h0a1.717,1.717,0,0,1,2.185-1.06l25.086,8.687a1.719,1.719,0,0,1,1.061,2.185h0A1.719,1.719,0,0,1,245.2,1054.545Z" fill="#5579b5"/>
          <path id="Path_207" data-name="Path 207" d="M259.176,1055.75l-27.468-9.513a1.719,1.719,0,0,1-1.061-2.185h0a1.719,1.719,0,0,1,2.185-1.061L260.3,1052.5a1.718,1.718,0,0,1,1.061,2.185h0A1.718,1.718,0,0,1,259.176,1055.75Z" fill="#5579b5"/>
          <path id="Path_208" data-name="Path 208" d="M246.559,1047.745l-27.469-9.513a1.716,1.716,0,0,1-1.06-2.184h0a1.716,1.716,0,0,1,2.184-1.061l27.469,9.513a1.718,1.718,0,0,1,1.061,2.185h0A1.717,1.717,0,0,1,246.559,1047.745Z" fill="#5579b5"/>
          <path id="Path_209" data-name="Path 209" d="M258.729,1048.325l-27.469-9.512a1.717,1.717,0,0,1-1.06-2.185h0a1.717,1.717,0,0,1,2.184-1.061l27.469,9.513a1.717,1.717,0,0,1,1.06,2.185h0A1.716,1.716,0,0,1,258.729,1048.325Z" fill="#5579b5"/>
          <path id="Path_210" data-name="Path 210" d="M254.858,1043.35l-27.468-9.513a1.716,1.716,0,0,1-1.061-2.184h0a1.716,1.716,0,0,1,2.184-1.061l27.469,9.513a1.718,1.718,0,0,1,1.061,2.185h0A1.717,1.717,0,0,1,254.858,1043.35Z" fill="#5579b5"/>
          <path id="Path_211" data-name="Path 211" d="M266.694,1043.815l-27.468-9.513a1.718,1.718,0,0,1-1.061-2.185h0a1.717,1.717,0,0,1,2.185-1.06l27.468,9.513a1.716,1.716,0,0,1,1.061,2.184h0A1.718,1.718,0,0,1,266.694,1043.815Z" fill="#5579b5"/>
        </g>
      </g>
    </g>
  </g>
</svg>
